<svg xmlns="http://www.w3.org/2000/svg" xmlns:xlink="http://www.w3.org/1999/xlink" width="500" zoomAndPan="magnify" viewBox="0 0 375 374.999991" height="500" preserveAspectRatio="xMidYMid meet" version="1.0"><defs><g/><clipPath id="00a095505c"><path d="M 150.8125 108.640625 L 224.3125 108.640625 L 224.3125 182.140625 L 150.8125 182.140625 Z M 150.8125 108.640625 " clip-rule="nonzero"/></clipPath><clipPath id="ad8356f73f"><path d="M 80.140625 251.945312 L 86.359375 251.945312 L 86.359375 258.160156 L 80.140625 258.160156 Z M 80.140625 251.945312 " clip-rule="nonzero"/></clipPath><clipPath id="7b9698d8c9"><path d="M 83.25 251.945312 L 84.238281 254.0625 L 86.359375 255.050781 L 84.238281 256.042969 L 83.25 258.160156 L 82.261719 256.042969 L 80.140625 255.050781 L 82.261719 254.0625 Z M 83.25 251.945312 " clip-rule="nonzero"/></clipPath><clipPath id="64b1ad955f"><path d="M 288.640625 251.945312 L 294.859375 251.945312 L 294.859375 258.160156 L 288.640625 258.160156 Z M 288.640625 251.945312 " clip-rule="nonzero"/></clipPath><clipPath id="5254dd76ca"><path d="M 291.75 251.945312 L 292.738281 254.0625 L 294.859375 255.050781 L 292.738281 256.042969 L 291.75 258.160156 L 290.761719 256.042969 L 288.640625 255.050781 L 290.761719 254.0625 Z M 291.75 251.945312 " clip-rule="nonzero"/></clipPath></defs><g clip-path="url(#00a095505c)"><path fill="#bb9979" d="M 171.496094 167.4375 C 171.621094 168.878906 171.941406 170.269531 172.421875 171.578125 C 170.652344 171.945312 168.820312 172.136719 166.945312 172.136719 C 166.066406 172.136719 165.203125 172.097656 164.359375 172.015625 C 164.421875 171.238281 164.515625 170.46875 164.636719 169.703125 C 167.015625 169.222656 169.316406 168.460938 171.496094 167.4375 M 161.375 160.53125 C 162.683594 161.015625 164.074219 161.332031 165.519531 161.457031 C 164.492188 163.636719 163.730469 165.9375 163.25 168.316406 C 162.484375 168.441406 161.714844 168.53125 160.9375 168.59375 C 160.855469 167.75 160.8125 166.886719 160.8125 166.007812 C 160.8125 164.128906 161.007812 162.300781 161.375 160.53125 Z M 163.246094 122.464844 C 163.730469 124.839844 164.492188 127.144531 165.515625 129.324219 C 164.070312 129.449219 162.683594 129.765625 161.375 130.246094 C 161.007812 128.480469 160.8125 126.648438 160.8125 124.773438 C 160.8125 123.894531 160.855469 123.03125 160.9375 122.183594 C 161.714844 122.246094 162.484375 122.339844 163.246094 122.464844 Z M 203.628906 167.433594 C 205.808594 168.457031 208.109375 169.222656 210.484375 169.703125 C 210.609375 170.46875 210.703125 171.238281 210.765625 172.015625 C 209.917969 172.097656 209.054688 172.136719 208.179688 172.136719 C 206.300781 172.136719 204.472656 171.945312 202.703125 171.578125 C 203.1875 170.269531 203.503906 168.878906 203.628906 167.433594 Z M 203.628906 123.347656 C 203.503906 121.902344 203.1875 120.511719 202.703125 119.203125 C 204.472656 118.835938 206.300781 118.640625 208.179688 118.640625 C 209.058594 118.640625 209.921875 118.683594 210.765625 118.765625 C 210.703125 119.542969 210.613281 120.3125 210.488281 121.078125 C 208.109375 121.558594 205.808594 122.324219 203.628906 123.347656 Z M 209.605469 161.457031 C 211.050781 161.332031 212.441406 161.015625 213.75 160.535156 C 214.117188 162.300781 214.308594 164.132812 214.308594 166.007812 C 214.308594 166.886719 214.269531 167.75 214.1875 168.59375 C 213.410156 168.53125 212.640625 168.4375 211.875 168.316406 C 211.394531 165.9375 210.628906 163.636719 209.605469 161.457031 Z M 213.75 130.246094 C 212.441406 129.765625 211.050781 129.449219 209.609375 129.324219 C 210.632812 127.144531 211.394531 124.84375 211.875 122.464844 C 212.640625 122.339844 213.410156 122.25 214.1875 122.1875 C 214.269531 123.03125 214.308594 123.894531 214.308594 124.773438 C 214.308594 126.648438 214.117188 128.480469 213.75 130.246094 Z M 184.574219 123.164062 C 181.679688 120.867188 178.328125 119.121094 174.675781 118.089844 C 175.375 116.738281 176.285156 115.515625 177.355469 114.453125 C 179.972656 111.863281 183.582031 110.261719 187.5625 110.261719 C 191.546875 110.261719 195.152344 111.863281 197.773438 114.457031 C 198.84375 115.515625 199.75 116.738281 200.449219 118.089844 C 196.796875 119.121094 193.445312 120.867188 190.550781 123.164062 C 190.003906 123.601562 189.472656 124.054688 188.957031 124.527344 C 189.316406 124.929688 189.667969 125.34375 190.003906 125.765625 C 190.503906 125.300781 191.023438 124.855469 191.558594 124.429688 C 194.347656 122.214844 197.589844 120.546875 201.125 119.582031 C 201.667969 121.007812 201.996094 122.539062 202.066406 124.140625 C 199.054688 125.773438 196.320312 127.921875 193.988281 130.523438 C 193.53125 131.035156 193.09375 131.558594 192.675781 132.09375 C 192.539062 132.265625 192.40625 132.4375 192.277344 132.609375 C 191.539062 131.144531 190.675781 129.753906 189.703125 128.449219 C 189.363281 127.992188 189.007812 127.550781 188.644531 127.117188 C 188.296875 126.703125 187.9375 126.296875 187.5625 125.90625 C 186.632812 124.921875 185.636719 124.007812 184.574219 123.164062 Z M 171.496094 123.34375 C 169.316406 122.320312 167.011719 121.554688 164.636719 121.074219 C 164.511719 120.3125 164.417969 119.539062 164.355469 118.765625 C 165.203125 118.683594 166.066406 118.640625 166.945312 118.640625 C 168.820312 118.640625 170.652344 118.835938 172.421875 119.203125 C 171.9375 120.511719 171.621094 121.898438 171.496094 123.34375 Z M 207.046875 145.390625 C 208.027344 144.460938 208.945312 143.460938 209.785156 142.402344 C 212.085938 139.507812 213.832031 136.152344 214.863281 132.5 C 216.210938 133.203125 217.4375 134.109375 218.496094 135.179688 C 221.089844 137.800781 222.691406 141.40625 222.691406 145.390625 C 222.691406 149.371094 221.089844 152.980469 218.496094 155.597656 C 217.4375 156.667969 216.210938 157.574219 214.863281 158.277344 C 213.832031 154.625 212.085938 151.273438 209.785156 148.378906 C 209.351562 147.828125 208.894531 147.296875 208.421875 146.785156 C 208.019531 147.144531 207.609375 147.492188 207.1875 147.828125 C 207.648438 148.328125 208.097656 148.847656 208.519531 149.382812 C 210.734375 152.171875 212.40625 155.414062 213.367188 158.949219 C 211.945312 159.492188 210.410156 159.824219 208.8125 159.890625 C 207.179688 156.882812 205.027344 154.144531 202.429688 151.816406 C 201.917969 151.355469 201.394531 150.917969 200.859375 150.5 C 200.6875 150.363281 200.511719 150.230469 200.339844 150.105469 C 201.804688 149.363281 203.195312 148.5 204.503906 147.527344 C 204.957031 147.1875 205.402344 146.835938 205.835938 146.46875 C 206.25 146.125 206.652344 145.761719 207.046875 145.390625 Z M 194.464844 138.484375 C 194.105469 137.039062 193.632812 135.636719 193.058594 134.289062 C 193.351562 133.871094 193.648438 133.46875 193.945312 133.085938 C 194.34375 132.578125 194.761719 132.078125 195.191406 131.597656 C 197.5 129.019531 200.234375 126.914062 203.238281 125.339844 L 203.269531 125.324219 C 203.554688 125.175781 203.839844 125.035156 204.132812 124.894531 C 206.046875 123.976562 208.066406 123.273438 210.152344 122.800781 C 209.679688 124.890625 208.976562 126.910156 208.058594 128.828125 C 207.921875 129.117188 207.777344 129.398438 207.628906 129.683594 L 207.617188 129.710938 C 206.042969 132.722656 203.933594 135.457031 201.355469 137.769531 C 200.875 138.199219 200.378906 138.613281 199.871094 139.011719 C 199.476562 139.320312 199.074219 139.617188 198.671875 139.898438 C 197.320312 139.324219 195.914062 138.847656 194.464844 138.484375 Z M 173.0625 166.644531 C 176.074219 165.011719 178.8125 162.859375 181.144531 160.257812 C 181.601562 159.746094 182.039062 159.226562 182.457031 158.691406 C 182.589844 158.523438 182.722656 158.347656 182.851562 158.175781 C 183.589844 159.636719 184.453125 161.027344 185.425781 162.332031 C 185.761719 162.785156 186.117188 163.230469 186.480469 163.664062 C 186.828125 164.078125 187.191406 164.480469 187.5625 164.875 C 188.492188 165.859375 189.488281 166.773438 190.550781 167.617188 C 193.445312 169.914062 196.796875 171.660156 200.449219 172.691406 C 199.746094 174.039062 198.839844 175.265625 197.769531 176.324219 C 195.148438 178.917969 191.542969 180.519531 187.558594 180.519531 C 183.578125 180.519531 179.972656 178.917969 177.351562 176.324219 C 176.28125 175.265625 175.375 174.039062 174.671875 172.691406 C 178.324219 171.660156 181.679688 169.914062 184.574219 167.617188 C 185.121094 167.179688 185.652344 166.726562 186.167969 166.25 C 185.808594 165.847656 185.457031 165.4375 185.121094 165.015625 C 184.621094 165.480469 184.101562 165.925781 183.566406 166.351562 C 180.777344 168.566406 177.535156 170.234375 174 171.199219 C 173.457031 169.773438 173.128906 168.242188 173.0625 166.644531 Z M 175.257812 151.773438 C 175.644531 151.476562 176.042969 151.179688 176.460938 150.886719 C 177.808594 151.460938 179.210938 151.933594 180.65625 152.292969 C 181.019531 153.742188 181.496094 155.148438 182.070312 156.5 C 181.789062 156.902344 181.492188 157.304688 181.183594 157.695312 C 180.785156 158.207031 180.371094 158.703125 179.941406 159.183594 C 177.628906 161.761719 174.894531 163.871094 171.882812 165.445312 L 171.855469 165.457031 C 171.574219 165.605469 171.289062 165.746094 171 165.886719 C 169.082031 166.804688 167.0625 167.507812 164.972656 167.980469 C 165.445312 165.894531 166.148438 163.875 167.066406 161.960938 C 167.207031 161.667969 167.351562 161.382812 167.496094 161.097656 L 167.511719 161.066406 C 169.085938 158.058594 171.195312 155.328125 173.769531 153.019531 C 174.253906 152.585938 174.75 152.171875 175.257812 151.773438 Z M 214.6875 173 L 214.699219 172.996094 L 214.707031 172.992188 L 214.71875 172.988281 L 214.722656 172.984375 L 214.738281 172.980469 C 214.828125 172.941406 214.910156 172.882812 214.976562 172.816406 L 214.988281 172.808594 C 215.070312 172.722656 215.136719 172.617188 215.179688 172.496094 L 215.183594 172.480469 L 215.203125 172.410156 C 215.410156 171.511719 215.574219 170.59375 215.695312 169.664062 C 215.710938 169.609375 215.71875 169.550781 215.722656 169.492188 C 215.722656 169.476562 215.722656 169.460938 215.722656 169.441406 L 215.746094 169.238281 C 215.867188 168.167969 215.929688 167.089844 215.929688 166.003906 C 215.929688 163.902344 215.699219 161.855469 215.265625 159.882812 C 216.898438 159.082031 218.375 158.015625 219.640625 156.738281 C 222.527344 153.820312 224.308594 149.8125 224.308594 145.386719 C 224.308594 140.964844 222.527344 136.957031 219.640625 134.042969 C 218.378906 132.761719 216.898438 131.695312 215.265625 130.894531 C 215.699219 128.921875 215.929688 126.875 215.929688 124.769531 C 215.929688 123.6875 215.867188 122.605469 215.746094 121.539062 L 215.722656 121.335938 C 215.722656 121.320312 215.722656 121.300781 215.722656 121.285156 C 215.71875 121.226562 215.710938 121.167969 215.695312 121.113281 C 215.574219 120.1875 215.410156 119.269531 215.203125 118.371094 C 215.195312 118.339844 215.1875 118.308594 215.175781 118.277344 L 215.171875 118.265625 L 215.171875 118.261719 L 215.167969 118.25 L 215.164062 118.246094 L 215.160156 118.230469 L 215.15625 118.226562 L 215.152344 118.210938 C 215.109375 118.121094 215.054688 118.039062 214.988281 117.972656 L 214.976562 117.960938 C 214.890625 117.878906 214.789062 117.8125 214.667969 117.769531 L 214.652344 117.765625 L 214.582031 117.746094 C 213.546875 117.507812 212.488281 117.324219 211.410156 117.203125 C 210.339844 117.082031 209.261719 117.019531 208.179688 117.019531 C 206.074219 117.019531 204.027344 117.25 202.054688 117.683594 C 201.253906 116.050781 200.1875 114.574219 198.910156 113.308594 C 195.992188 110.421875 191.984375 108.640625 187.5625 108.640625 C 183.140625 108.640625 179.128906 110.421875 176.214844 113.308594 C 174.9375 114.574219 173.871094 116.050781 173.070312 117.683594 C 171.097656 117.25 169.046875 117.023438 166.945312 117.023438 C 165.863281 117.023438 164.78125 117.082031 163.714844 117.203125 C 162.636719 117.328125 161.578125 117.507812 160.542969 117.75 L 160.472656 117.765625 L 160.457031 117.773438 C 160.335938 117.8125 160.230469 117.878906 160.148438 117.964844 L 160.136719 117.972656 C 160.070312 118.042969 160.015625 118.121094 159.972656 118.210938 L 159.96875 118.226562 L 159.964844 118.230469 L 159.960938 118.246094 L 159.957031 118.25 L 159.953125 118.265625 L 159.945312 118.28125 C 159.9375 118.308594 159.929688 118.339844 159.921875 118.371094 C 159.683594 119.410156 159.5 120.464844 159.378906 121.539062 C 159.257812 122.609375 159.195312 123.6875 159.195312 124.773438 C 159.195312 126.875 159.425781 128.921875 159.859375 130.894531 C 158.226562 131.695312 156.746094 132.761719 155.480469 134.042969 C 152.59375 136.960938 150.8125 140.96875 150.8125 145.390625 C 150.8125 149.8125 152.597656 153.824219 155.480469 156.738281 C 156.746094 158.019531 158.222656 159.085938 159.855469 159.882812 C 159.421875 161.855469 159.195312 163.90625 159.195312 166.007812 C 159.195312 167.09375 159.257812 168.171875 159.378906 169.242188 C 159.5 170.316406 159.683594 171.375 159.921875 172.410156 L 159.941406 172.480469 L 159.945312 172.496094 C 159.984375 172.617188 160.050781 172.722656 160.132812 172.808594 L 160.144531 172.816406 C 160.214844 172.882812 160.292969 172.9375 160.382812 172.980469 L 160.398438 172.984375 L 160.402344 172.988281 L 160.414062 172.992188 L 160.421875 172.996094 L 160.433594 173 L 160.4375 173 L 160.449219 173.007812 C 160.480469 173.015625 160.511719 173.023438 160.542969 173.03125 C 161.441406 173.238281 162.355469 173.402344 163.285156 173.523438 C 163.339844 173.539062 163.398438 173.546875 163.457031 173.550781 C 163.472656 173.550781 163.492188 173.550781 163.507812 173.550781 L 163.710938 173.574219 C 164.777344 173.695312 165.859375 173.757812 166.941406 173.757812 C 169.042969 173.757812 171.09375 173.53125 173.066406 173.09375 C 173.867188 174.726562 174.933594 176.207031 176.210938 177.472656 C 179.128906 180.359375 183.136719 182.140625 187.558594 182.140625 C 191.980469 182.140625 195.992188 180.355469 198.90625 177.46875 C 200.183594 176.207031 201.25 174.726562 202.050781 173.09375 C 204.023438 173.53125 206.074219 173.757812 208.175781 173.757812 C 209.257812 173.757812 210.339844 173.695312 211.40625 173.574219 L 211.609375 173.550781 C 211.625 173.550781 211.644531 173.550781 211.660156 173.550781 C 211.71875 173.546875 211.777344 173.539062 211.832031 173.523438 C 212.757812 173.402344 213.675781 173.238281 214.574219 173.03125 C 214.605469 173.027344 214.636719 173.015625 214.667969 173.007812 L 214.679688 173 Z M 193.058594 156.488281 C 193.632812 155.140625 194.105469 153.738281 194.464844 152.292969 C 195.910156 151.933594 197.3125 151.460938 198.660156 150.886719 C 199.078125 151.179688 199.480469 151.476562 199.863281 151.773438 C 200.375 152.171875 200.871094 152.585938 201.351562 153.019531 C 203.929688 155.328125 206.039062 158.058594 207.609375 161.066406 L 207.625 161.097656 C 207.773438 161.382812 207.917969 161.667969 208.054688 161.960938 C 208.972656 163.875 209.675781 165.894531 210.148438 167.980469 C 208.066406 167.507812 206.046875 166.804688 204.128906 165.886719 C 203.839844 165.746094 203.554688 165.605469 203.273438 165.457031 L 203.238281 165.441406 C 200.230469 163.867188 197.5 161.757812 195.191406 159.183594 C 194.757812 158.703125 194.34375 158.207031 193.945312 157.695312 C 193.644531 157.308594 193.351562 156.910156 193.058594 156.488281 Z M 167.070312 128.832031 C 166.148438 126.910156 165.445312 124.890625 164.972656 122.800781 C 167.0625 123.273438 169.082031 123.976562 171.003906 124.894531 C 171.289062 125.03125 171.574219 125.175781 171.855469 125.320312 L 171.886719 125.335938 C 174.898438 126.910156 177.632812 129.019531 179.941406 131.597656 C 180.375 132.078125 180.785156 132.574219 181.183594 133.082031 C 181.492188 133.480469 181.789062 133.878906 182.070312 134.28125 C 181.496094 135.632812 181.019531 137.039062 180.65625 138.488281 C 179.207031 138.847656 177.804688 139.324219 176.453125 139.898438 C 176.046875 139.617188 175.648438 139.320312 175.253906 139.011719 C 174.746094 138.617188 174.25 138.199219 173.769531 137.773438 C 171.191406 135.460938 169.082031 132.722656 167.507812 129.714844 L 167.492188 129.683594 C 167.347656 129.402344 167.207031 129.117188 167.070312 128.832031 Z M 170.515625 145.390625 C 173.65625 142.792969 177.394531 140.898438 181.5 139.945312 C 181.527344 139.941406 181.558594 139.933594 181.585938 139.921875 L 181.589844 139.921875 L 181.601562 139.917969 C 181.714844 139.875 181.8125 139.8125 181.894531 139.730469 L 181.902344 139.722656 L 181.90625 139.722656 L 181.917969 139.707031 C 181.980469 139.644531 182.027344 139.570312 182.066406 139.484375 L 182.070312 139.472656 L 182.070312 139.46875 L 182.078125 139.457031 L 182.078125 139.449219 L 182.085938 139.4375 L 182.085938 139.433594 C 182.101562 139.398438 182.109375 139.359375 182.117188 139.324219 C 182.921875 135.859375 184.398438 132.65625 186.398438 129.851562 C 186.089844 129.382812 185.75 128.929688 185.386719 128.492188 C 184.429688 129.785156 183.578125 131.160156 182.847656 132.605469 C 182.71875 132.429688 182.585938 132.257812 182.453125 132.089844 C 182.039062 131.554688 181.601562 131.03125 181.144531 130.523438 C 178.8125 127.921875 176.070312 125.769531 173.058594 124.132812 C 173.128906 122.535156 173.457031 121.007812 174 119.582031 C 177.535156 120.546875 180.777344 122.214844 183.566406 124.429688 C 184.601562 125.253906 185.574219 126.152344 186.480469 127.117188 C 186.851562 127.515625 187.214844 127.925781 187.558594 128.34375 C 189.097656 130.199219 190.386719 132.265625 191.382812 134.496094 L 191.414062 134.5625 C 192.085938 136.082031 192.621094 137.675781 193.003906 139.324219 C 193.011719 139.355469 193.019531 139.382812 193.027344 139.414062 L 193.03125 139.429688 L 193.039062 139.445312 L 193.039062 139.449219 L 193.046875 139.464844 C 193.085938 139.5625 193.144531 139.648438 193.214844 139.722656 L 193.226562 139.730469 C 193.296875 139.804688 193.386719 139.863281 193.484375 139.902344 L 193.5 139.90625 L 193.503906 139.910156 L 193.519531 139.914062 L 193.53125 139.921875 L 193.535156 139.921875 C 193.5625 139.929688 193.589844 139.9375 193.621094 139.945312 C 197.085938 140.75 200.292969 142.222656 203.09375 144.226562 C 203.566406 143.914062 204.019531 143.578125 204.453125 143.214844 C 203.164062 142.257812 201.789062 141.40625 200.34375 140.675781 C 200.515625 140.546875 200.6875 140.414062 200.859375 140.28125 C 201.390625 139.867188 201.914062 139.429688 202.425781 138.96875 C 205.027344 136.640625 207.179688 133.898438 208.8125 130.886719 C 210.410156 130.953125 211.941406 131.28125 213.367188 131.828125 C 212.402344 135.363281 210.734375 138.605469 208.519531 141.394531 C 207.695312 142.429688 206.796875 143.402344 205.832031 144.304688 C 205.433594 144.679688 205.023438 145.039062 204.605469 145.386719 C 202.75 146.925781 200.679688 148.214844 198.453125 149.207031 L 198.386719 149.238281 C 196.867188 149.910156 195.273438 150.449219 193.621094 150.832031 C 193.59375 150.835938 193.5625 150.84375 193.535156 150.855469 L 193.523438 150.859375 L 193.519531 150.859375 L 193.488281 150.875 L 193.484375 150.875 C 193.386719 150.914062 193.300781 150.972656 193.226562 151.042969 L 193.21875 151.054688 C 193.144531 151.125 193.089844 151.210938 193.046875 151.308594 L 193.046875 151.3125 L 193.042969 151.328125 L 193.039062 151.328125 L 193.035156 151.34375 L 193.035156 151.347656 L 193.03125 151.359375 C 193.019531 151.390625 193.011719 151.417969 193.003906 151.449219 C 192.621094 153.101562 192.085938 154.695312 191.414062 156.210938 L 191.382812 156.28125 C 190.652344 157.921875 189.757812 159.476562 188.722656 160.921875 C 189.035156 161.390625 189.371094 161.84375 189.734375 162.28125 C 190.691406 160.988281 191.542969 159.609375 192.277344 158.164062 C 192.40625 158.335938 192.539062 158.507812 192.671875 158.683594 C 193.089844 159.21875 193.527344 159.742188 193.988281 160.253906 C 196.316406 162.851562 199.054688 165.003906 202.0625 166.636719 C 201.996094 168.234375 201.667969 169.769531 201.121094 171.191406 C 197.585938 170.230469 194.34375 168.558594 191.554688 166.34375 C 190.519531 165.523438 189.546875 164.625 188.644531 163.660156 C 188.269531 163.261719 187.910156 162.851562 187.5625 162.429688 C 184.964844 159.292969 183.070312 155.550781 182.117188 151.449219 C 182.113281 151.417969 182.105469 151.390625 182.09375 151.363281 L 182.09375 151.359375 L 182.089844 151.347656 L 182.082031 151.332031 L 182.082031 151.328125 L 182.074219 151.3125 C 182.035156 151.214844 181.976562 151.128906 181.90625 151.054688 L 181.894531 151.046875 C 181.824219 150.976562 181.738281 150.914062 181.640625 150.875 L 181.636719 150.875 L 181.621094 150.871094 L 181.617188 150.867188 L 181.601562 150.863281 L 181.589844 150.855469 L 181.585938 150.855469 C 181.558594 150.847656 181.527344 150.839844 181.5 150.832031 C 179.847656 150.449219 178.253906 149.914062 176.734375 149.242188 L 176.667969 149.210938 C 175.027344 148.476562 173.472656 147.582031 172.027344 146.550781 C 171.554688 146.863281 171.101562 147.199219 170.667969 147.5625 C 171.960938 148.519531 173.335938 149.371094 174.785156 150.105469 C 174.613281 150.234375 174.4375 150.363281 174.265625 150.5 C 173.730469 150.917969 173.207031 151.355469 172.695312 151.816406 C 170.097656 154.144531 167.945312 156.882812 166.3125 159.890625 C 164.714844 159.824219 163.179688 159.496094 161.757812 158.949219 C 162.71875 155.414062 164.390625 152.171875 166.605469 149.382812 C 167.425781 148.347656 168.324219 147.375 169.289062 146.46875 C 169.6875 146.097656 170.097656 145.738281 170.515625 145.390625 Z M 185.644531 118.191406 C 185.644531 119.25 186.503906 120.105469 187.5625 120.105469 C 188.621094 120.105469 189.476562 119.25 189.476562 118.191406 C 189.476562 117.132812 188.621094 116.277344 187.5625 116.277344 C 186.503906 116.277344 185.644531 117.132812 185.644531 118.191406 Z M 214.761719 143.472656 C 213.703125 143.472656 212.84375 144.332031 212.84375 145.390625 C 212.84375 146.445312 213.703125 147.304688 214.761719 147.304688 C 215.816406 147.304688 216.675781 146.445312 216.675781 145.390625 C 216.675781 144.332031 215.816406 143.472656 214.761719 143.472656 Z M 160.363281 147.304688 C 161.421875 147.304688 162.28125 146.449219 162.28125 145.390625 C 162.28125 144.332031 161.421875 143.476562 160.363281 143.476562 C 159.304688 143.476562 158.449219 144.332031 158.449219 145.390625 C 158.449219 146.449219 159.304688 147.304688 160.363281 147.304688 Z M 189.476562 172.589844 C 189.476562 171.53125 188.621094 170.671875 187.5625 170.671875 C 186.503906 170.671875 185.648438 171.53125 185.648438 172.589844 C 185.648438 173.644531 186.503906 174.503906 187.5625 174.503906 C 188.621094 174.503906 189.476562 173.644531 189.476562 172.589844 Z M 161.753906 131.832031 C 163.179688 131.285156 164.710938 130.957031 166.308594 130.890625 C 167.941406 133.902344 170.09375 136.640625 172.695312 138.972656 C 173.207031 139.429688 173.730469 139.867188 174.261719 140.285156 C 174.433594 140.417969 174.605469 140.550781 174.777344 140.679688 C 173.316406 141.417969 171.925781 142.28125 170.621094 143.25 C 170.167969 143.589844 169.722656 143.945312 169.289062 144.308594 C 168.875 144.65625 168.472656 145.015625 168.078125 145.390625 C 167.09375 146.320312 166.179688 147.316406 165.335938 148.378906 C 163.039062 151.273438 161.292969 154.625 160.261719 158.277344 C 158.914062 157.574219 157.6875 156.671875 156.628906 155.597656 C 154.035156 152.980469 152.433594 149.371094 152.433594 145.390625 C 152.433594 141.40625 154.035156 137.800781 156.625 135.179688 C 157.6875 134.109375 158.910156 133.203125 160.261719 132.5 C 161.292969 136.152344 163.039062 139.507812 165.335938 142.402344 C 165.773438 142.949219 166.226562 143.480469 166.703125 143.996094 C 167.105469 143.636719 167.515625 143.285156 167.9375 142.949219 C 167.472656 142.449219 167.027344 141.929688 166.605469 141.394531 C 164.386719 138.605469 162.71875 135.363281 161.753906 131.832031 Z M 161.753906 131.832031 " fill-opacity="1" fill-rule="evenodd"/></g><g fill="#bb9979" fill-opacity="1"><g transform="translate(63.750782, 228.915671)"><g><path d="M 37.84375 -13.734375 C 37.84375 -15.492188 37.507812 -16.769531 36.84375 -17.5625 C 36.1875 -18.363281 35.378906 -18.882812 34.421875 -19.125 C 33.460938 -19.363281 32.460938 -19.484375 31.421875 -19.484375 L 27.578125 -19.484375 L 27.578125 -20.03125 L 43.484375 -20.03125 L 43.484375 -19.484375 C 43.078125 -19.484375 42.800781 -19.179688 42.65625 -18.578125 C 42.519531 -17.984375 42.429688 -17.273438 42.390625 -16.453125 C 42.359375 -15.640625 42.257812 -14.910156 42.09375 -14.265625 C 41.375 -11.035156 40.046875 -8.335938 38.109375 -6.171875 C 36.171875 -4.015625 33.867188 -2.394531 31.203125 -1.3125 C 28.546875 -0.238281 25.75 0.265625 22.8125 0.203125 C 19.875 0.148438 17.035156 -0.453125 14.296875 -1.609375 C 11.554688 -2.773438 9.144531 -4.515625 7.0625 -6.828125 C 4.988281 -9.148438 3.492188 -12.050781 2.578125 -15.53125 C 1.816406 -18.375 1.632812 -21.179688 2.03125 -23.953125 C 2.4375 -26.734375 3.328125 -29.3125 4.703125 -31.6875 C 6.085938 -34.070312 7.878906 -36.132812 10.078125 -37.875 C 12.273438 -39.613281 14.789062 -40.863281 17.625 -41.625 C 20.34375 -42.375 23.039062 -42.566406 25.71875 -42.203125 C 28.40625 -41.847656 30.914062 -41.039062 33.25 -39.78125 C 35.59375 -38.53125 37.625 -36.882812 39.34375 -34.84375 L 37.90625 -29.5625 L 37.359375 -29.5625 C 36.441406 -31.445312 35.300781 -33.195312 33.9375 -34.8125 C 32.582031 -36.425781 31.0625 -37.8125 29.375 -38.96875 C 27.695312 -40.132812 25.878906 -40.925781 23.921875 -41.34375 C 21.960938 -41.769531 19.90625 -41.703125 17.75 -41.140625 C 15.1875 -40.460938 13.054688 -39.253906 11.359375 -37.515625 C 9.660156 -35.773438 8.367188 -33.734375 7.484375 -31.390625 C 6.609375 -29.054688 6.117188 -26.609375 6.015625 -24.046875 C 5.921875 -21.484375 6.175781 -19.023438 6.78125 -16.671875 C 7.570312 -13.753906 8.75 -11.242188 10.3125 -9.140625 C 11.875 -7.046875 13.671875 -5.367188 15.703125 -4.109375 C 17.742188 -2.847656 19.882812 -2.003906 22.125 -1.578125 C 24.363281 -1.160156 26.5625 -1.15625 28.71875 -1.5625 C 30.757812 -2 32.390625 -2.65625 33.609375 -3.53125 C 34.828125 -4.414062 35.734375 -5.4375 36.328125 -6.59375 C 36.929688 -7.75 37.332031 -8.945312 37.53125 -10.1875 C 37.738281 -11.425781 37.84375 -12.609375 37.84375 -13.734375 Z M 37.84375 -13.734375 "/></g></g></g><g fill="#bb9979" fill-opacity="1"><g transform="translate(109.023481, 228.915671)"><g><path d="M 12.890625 0 L 12.890625 -28.90625 L 7.3125 -26.75 L 7.5 -26.265625 C 7.65625 -26.265625 7.863281 -26.101562 8.125 -25.78125 C 8.382812 -25.46875 8.59375 -24.769531 8.75 -23.6875 L 8.75 0 C 8.75 0 8.738281 0.367188 8.71875 1.109375 C 8.707031 1.847656 8.640625 2.804688 8.515625 3.984375 C 8.390625 5.160156 8.1875 6.410156 7.90625 7.734375 C 7.632812 9.054688 7.226562 10.304688 6.6875 11.484375 C 6.144531 12.660156 5.453125 13.617188 4.609375 14.359375 C 3.773438 15.097656 2.738281 15.46875 1.5 15.46875 L 1.5 15.890625 C 3.375 15.890625 5.179688 15.289062 6.921875 14.09375 C 8.660156 12.894531 10.085938 11.113281 11.203125 8.75 C 12.328125 6.394531 12.890625 3.476562 12.890625 0 Z M 10.25 -33.765625 C 9.488281 -33.765625 8.828125 -34.039062 8.265625 -34.59375 C 7.710938 -35.15625 7.4375 -35.816406 7.4375 -36.578125 C 7.4375 -37.378906 7.710938 -38.050781 8.265625 -38.59375 C 8.828125 -39.132812 9.488281 -39.40625 10.25 -39.40625 C 11.050781 -39.40625 11.722656 -39.132812 12.265625 -38.59375 C 12.804688 -38.050781 13.078125 -37.378906 13.078125 -36.578125 C 13.078125 -35.816406 12.804688 -35.15625 12.265625 -34.59375 C 11.722656 -34.039062 11.050781 -33.765625 10.25 -33.765625 Z M 10.25 -33.765625 "/></g></g></g><g fill="#bb9979" fill-opacity="1"><g transform="translate(123.594695, 228.915671)"><g><path d="M 2.03125 -10.96875 C 1.351562 -13.570312 1.363281 -16.113281 2.0625 -18.59375 C 2.769531 -21.070312 4.019531 -23.238281 5.8125 -25.09375 C 7.613281 -26.957031 9.8125 -28.226562 12.40625 -28.90625 C 15.050781 -29.625 17.613281 -29.632812 20.09375 -28.9375 C 22.570312 -28.238281 24.738281 -26.988281 26.59375 -25.1875 C 28.457031 -23.382812 29.726562 -21.164062 30.40625 -18.53125 C 31.125 -15.925781 31.125 -13.382812 30.40625 -10.90625 C 29.6875 -8.4375 28.425781 -6.28125 26.625 -4.4375 C 24.820312 -2.59375 22.625 -1.3125 20.03125 -0.59375 C 17.425781 0.0820312 14.875 0.0820312 12.375 -0.59375 C 9.882812 -1.28125 7.71875 -2.53125 5.875 -4.34375 C 4.039062 -6.164062 2.757812 -8.375 2.03125 -10.96875 Z M 26.328125 -17.453125 C 25.929688 -18.890625 25.3125 -20.359375 24.46875 -21.859375 C 23.625 -23.359375 22.59375 -24.6875 21.375 -25.84375 C 20.15625 -27 18.796875 -27.835938 17.296875 -28.359375 C 15.796875 -28.878906 14.207031 -28.921875 12.53125 -28.484375 C 10.851562 -28.046875 9.503906 -27.21875 8.484375 -26 C 7.460938 -24.78125 6.710938 -23.367188 6.234375 -21.765625 C 5.753906 -20.171875 5.515625 -18.515625 5.515625 -16.796875 C 5.515625 -15.078125 5.710938 -13.492188 6.109375 -12.046875 C 6.515625 -10.609375 7.132812 -9.140625 7.96875 -7.640625 C 8.8125 -6.140625 9.84375 -4.8125 11.0625 -3.65625 C 12.28125 -2.5 13.640625 -1.648438 15.140625 -1.109375 C 16.640625 -0.566406 18.226562 -0.535156 19.90625 -1.015625 C 21.582031 -1.453125 22.941406 -2.28125 23.984375 -3.5 C 25.023438 -4.726562 25.773438 -6.140625 26.234375 -7.734375 C 26.691406 -9.335938 26.921875 -11 26.921875 -12.71875 C 26.921875 -14.4375 26.722656 -16.015625 26.328125 -17.453125 Z M 26.328125 -17.453125 "/></g></g></g><g fill="#bb9979" fill-opacity="1"><g transform="translate(156.035136, 228.915671)"><g><path d="M 9.171875 -23.75 L 16.734375 -5.453125 L 23.6875 -22.125 C 24.488281 -24.039062 24.914062 -25.554688 24.96875 -26.671875 C 25.03125 -27.796875 24.664062 -28.359375 23.875 -28.359375 L 23.875 -28.90625 L 28.90625 -28.90625 L 28.90625 -28.359375 C 28.46875 -28.359375 27.828125 -27.910156 26.984375 -27.015625 C 26.148438 -26.117188 25.148438 -24.289062 23.984375 -21.53125 L 17.03125 -4.734375 L 19.015625 0 L 14.515625 0 L 4.796875 -23.5 C 4.273438 -24.707031 3.710938 -25.816406 3.109375 -26.828125 C 2.515625 -27.847656 1.976562 -28.359375 1.5 -28.359375 L 1.5 -28.90625 L 8.453125 -28.90625 L 8.453125 -28.359375 C 8.171875 -28.359375 8.039062 -28.03125 8.0625 -27.375 C 8.082031 -26.71875 8.453125 -25.507812 9.171875 -23.75 Z M 9.171875 -23.75 "/></g></g></g><g fill="#bb9979" fill-opacity="1"><g transform="translate(186.436798, 228.915671)"><g><path d="M 28.90625 -0.546875 L 28.90625 0 L 23.390625 0 L 23.390625 -17.265625 C 23.390625 -18.347656 23.335938 -19.535156 23.234375 -20.828125 C 23.140625 -22.128906 22.890625 -23.378906 22.484375 -24.578125 C 22.085938 -25.785156 21.476562 -26.769531 20.65625 -27.53125 C 19.84375 -28.289062 18.710938 -28.671875 17.265625 -28.671875 C 15.347656 -28.671875 13.769531 -28.328125 12.53125 -27.640625 C 11.289062 -26.960938 10.441406 -26.222656 9.984375 -25.421875 C 9.523438 -24.628906 9.472656 -24.007812 9.828125 -23.5625 C 10.191406 -23.164062 10.894531 -22.9375 11.9375 -22.875 C 12.976562 -22.8125 13.992188 -22.582031 14.984375 -22.1875 C 16.304688 -21.664062 17.359375 -20.84375 18.140625 -19.71875 C 18.921875 -18.601562 19.46875 -17.328125 19.78125 -15.890625 C 20.101562 -14.453125 20.222656 -13.015625 20.140625 -11.578125 C 20.066406 -10.140625 19.789062 -8.835938 19.3125 -7.671875 C 18.425781 -5.359375 17.070312 -3.441406 15.25 -1.921875 C 13.4375 -0.398438 11.472656 0.316406 9.359375 0.234375 C 7.359375 0.160156 5.738281 -0.375 4.5 -1.375 C 3.257812 -2.375 2.410156 -3.644531 1.953125 -5.1875 C 1.492188 -6.726562 1.441406 -8.347656 1.796875 -10.046875 C 2.160156 -11.742188 2.929688 -13.363281 4.109375 -14.90625 C 5.285156 -16.445312 6.898438 -17.722656 8.953125 -18.734375 C 11.015625 -19.753906 13.523438 -20.328125 16.484375 -20.453125 C 16.566406 -20.492188 16.707031 -20.515625 16.90625 -20.515625 C 16.3125 -21.023438 15.613281 -21.441406 14.8125 -21.765625 C 13.894531 -22.171875 12.863281 -22.378906 11.71875 -22.390625 C 10.582031 -22.410156 9.570312 -22.367188 8.6875 -22.265625 C 7.8125 -22.171875 7.253906 -22.085938 7.015625 -22.015625 C 6.898438 -22.847656 7.25 -23.8125 8.0625 -24.90625 C 8.882812 -26.007812 10.082031 -26.976562 11.65625 -27.8125 C 13.238281 -28.65625 15.109375 -29.078125 17.265625 -29.078125 C 19.867188 -29.078125 21.910156 -28.566406 23.390625 -27.546875 C 24.867188 -26.535156 25.925781 -25.140625 26.5625 -23.359375 C 27.207031 -21.578125 27.53125 -19.546875 27.53125 -17.265625 L 27.53125 -5.15625 C 27.53125 -3.195312 27.71875 -1.9375 28.09375 -1.375 C 28.476562 -0.820312 28.75 -0.546875 28.90625 -0.546875 Z M 17.328125 -20.03125 C 15.210938 -20.03125 13.265625 -19.660156 11.484375 -18.921875 C 9.703125 -18.179688 8.28125 -17.070312 7.21875 -15.59375 C 6.164062 -14.113281 5.640625 -12.210938 5.640625 -9.890625 C 5.640625 -8.773438 5.804688 -7.664062 6.140625 -6.5625 C 6.484375 -5.46875 7.035156 -4.519531 7.796875 -3.71875 C 8.554688 -2.914062 9.535156 -2.394531 10.734375 -2.15625 C 12.015625 -1.914062 13.191406 -2.054688 14.265625 -2.578125 C 15.347656 -3.097656 16.289062 -3.828125 17.09375 -4.765625 C 17.894531 -5.703125 18.515625 -6.710938 18.953125 -7.796875 C 19.472656 -9.078125 19.757812 -10.46875 19.8125 -11.96875 C 19.875 -13.46875 19.703125 -14.925781 19.296875 -16.34375 C 18.898438 -17.757812 18.242188 -18.988281 17.328125 -20.03125 Z M 17.328125 -20.03125 "/></g></g></g><g fill="#bb9979" fill-opacity="1"><g transform="translate(216.838461, 228.915671)"><g><path d="M 1.5 -28.359375 L 1.5 -28.90625 L 7.015625 -28.90625 L 7.015625 -13.375 C 7.253906 -15.207031 7.582031 -16.863281 8 -18.34375 C 8.425781 -19.820312 8.898438 -21.144531 9.421875 -22.3125 C 9.929688 -23.425781 10.578125 -24.503906 11.359375 -25.546875 C 12.140625 -26.585938 13.050781 -27.445312 14.09375 -28.125 C 15.132812 -28.800781 16.3125 -29.140625 17.625 -29.140625 C 19.820312 -29.140625 21.476562 -28.570312 22.59375 -27.4375 C 23.71875 -26.300781 24.488281 -24.851562 24.90625 -23.09375 C 25.332031 -21.332031 25.546875 -19.550781 25.546875 -17.75 L 25.546875 -5.15625 C 25.546875 -3.195312 25.734375 -1.9375 26.109375 -1.375 C 26.492188 -0.820312 26.765625 -0.546875 26.921875 -0.546875 L 26.921875 0 L 19.96875 0 L 19.96875 -0.546875 C 20.164062 -0.546875 20.441406 -0.820312 20.796875 -1.375 C 21.160156 -1.9375 21.34375 -3.195312 21.34375 -5.15625 L 21.34375 -17.75 C 21.34375 -18.46875 21.300781 -19.328125 21.21875 -20.328125 C 21.144531 -21.328125 20.976562 -22.335938 20.71875 -23.359375 C 20.457031 -24.378906 20.078125 -25.273438 19.578125 -26.046875 C 19.078125 -26.828125 18.410156 -27.359375 17.578125 -27.640625 C 16.453125 -28.046875 15.378906 -27.945312 14.359375 -27.34375 C 13.335938 -26.75 12.445312 -25.953125 11.6875 -24.953125 C 10.925781 -23.953125 10.328125 -22.988281 9.890625 -22.0625 C 9.015625 -20.1875 8.316406 -17.847656 7.796875 -15.046875 C 7.273438 -12.253906 7.015625 -8.957031 7.015625 -5.15625 C 7.015625 -3.195312 7.203125 -1.9375 7.578125 -1.375 C 7.960938 -0.820312 8.234375 -0.546875 8.390625 -0.546875 L 8.390625 0 L 1.5 0 L 1.5 -0.546875 C 1.695312 -0.546875 1.972656 -0.820312 2.328125 -1.375 C 2.691406 -1.9375 2.875 -3.195312 2.875 -5.15625 L 2.875 -23.75 C 2.875 -25.707031 2.691406 -26.960938 2.328125 -27.515625 C 1.972656 -28.078125 1.695312 -28.359375 1.5 -28.359375 Z M 1.5 -28.359375 "/></g></g></g><g fill="#bb9979" fill-opacity="1"><g transform="translate(245.261313, 228.915671)"><g><path d="M 28.90625 -0.546875 L 28.90625 0 L 23.390625 0 L 23.390625 -17.265625 C 23.390625 -18.347656 23.335938 -19.535156 23.234375 -20.828125 C 23.140625 -22.128906 22.890625 -23.378906 22.484375 -24.578125 C 22.085938 -25.785156 21.476562 -26.769531 20.65625 -27.53125 C 19.84375 -28.289062 18.710938 -28.671875 17.265625 -28.671875 C 15.347656 -28.671875 13.769531 -28.328125 12.53125 -27.640625 C 11.289062 -26.960938 10.441406 -26.222656 9.984375 -25.421875 C 9.523438 -24.628906 9.472656 -24.007812 9.828125 -23.5625 C 10.191406 -23.164062 10.894531 -22.9375 11.9375 -22.875 C 12.976562 -22.8125 13.992188 -22.582031 14.984375 -22.1875 C 16.304688 -21.664062 17.359375 -20.84375 18.140625 -19.71875 C 18.921875 -18.601562 19.46875 -17.328125 19.78125 -15.890625 C 20.101562 -14.453125 20.222656 -13.015625 20.140625 -11.578125 C 20.066406 -10.140625 19.789062 -8.835938 19.3125 -7.671875 C 18.425781 -5.359375 17.070312 -3.441406 15.25 -1.921875 C 13.4375 -0.398438 11.472656 0.316406 9.359375 0.234375 C 7.359375 0.160156 5.738281 -0.375 4.5 -1.375 C 3.257812 -2.375 2.410156 -3.644531 1.953125 -5.1875 C 1.492188 -6.726562 1.441406 -8.347656 1.796875 -10.046875 C 2.160156 -11.742188 2.929688 -13.363281 4.109375 -14.90625 C 5.285156 -16.445312 6.898438 -17.722656 8.953125 -18.734375 C 11.015625 -19.753906 13.523438 -20.328125 16.484375 -20.453125 C 16.566406 -20.492188 16.707031 -20.515625 16.90625 -20.515625 C 16.3125 -21.023438 15.613281 -21.441406 14.8125 -21.765625 C 13.894531 -22.171875 12.863281 -22.378906 11.71875 -22.390625 C 10.582031 -22.410156 9.570312 -22.367188 8.6875 -22.265625 C 7.8125 -22.171875 7.253906 -22.085938 7.015625 -22.015625 C 6.898438 -22.847656 7.25 -23.8125 8.0625 -24.90625 C 8.882812 -26.007812 10.082031 -26.976562 11.65625 -27.8125 C 13.238281 -28.65625 15.109375 -29.078125 17.265625 -29.078125 C 19.867188 -29.078125 21.910156 -28.566406 23.390625 -27.546875 C 24.867188 -26.535156 25.925781 -25.140625 26.5625 -23.359375 C 27.207031 -21.578125 27.53125 -19.546875 27.53125 -17.265625 L 27.53125 -5.15625 C 27.53125 -3.195312 27.71875 -1.9375 28.09375 -1.375 C 28.476562 -0.820312 28.75 -0.546875 28.90625 -0.546875 Z M 17.328125 -20.03125 C 15.210938 -20.03125 13.265625 -19.660156 11.484375 -18.921875 C 9.703125 -18.179688 8.28125 -17.070312 7.21875 -15.59375 C 6.164062 -14.113281 5.640625 -12.210938 5.640625 -9.890625 C 5.640625 -8.773438 5.804688 -7.664062 6.140625 -6.5625 C 6.484375 -5.46875 7.035156 -4.519531 7.796875 -3.71875 C 8.554688 -2.914062 9.535156 -2.394531 10.734375 -2.15625 C 12.015625 -1.914062 13.191406 -2.054688 14.265625 -2.578125 C 15.347656 -3.097656 16.289062 -3.828125 17.09375 -4.765625 C 17.894531 -5.703125 18.515625 -6.710938 18.953125 -7.796875 C 19.472656 -9.078125 19.757812 -10.46875 19.8125 -11.96875 C 19.875 -13.46875 19.703125 -14.925781 19.296875 -16.34375 C 18.898438 -17.757812 18.242188 -18.988281 17.328125 -20.03125 Z M 17.328125 -20.03125 "/></g></g></g><g fill="#bb9979" fill-opacity="1"><g transform="translate(275.662976, 228.915671)"><g><path d="M 4.5 -41.984375 C 5.257812 -41.984375 5.890625 -41.722656 6.390625 -41.203125 C 6.890625 -40.679688 7.140625 -40.0625 7.140625 -39.34375 C 7.140625 -38.0625 6.785156 -36.976562 6.078125 -36.09375 C 5.378906 -35.21875 4.429688 -34.78125 3.234375 -34.78125 L 3.234375 -35.328125 C 3.953125 -35.328125 4.429688 -35.453125 4.671875 -35.703125 C 4.910156 -35.960938 5.03125 -36.210938 5.03125 -36.453125 C 5.03125 -36.703125 5.03125 -36.828125 5.03125 -36.828125 C 4.957031 -36.785156 4.78125 -36.765625 4.5 -36.765625 C 3.78125 -36.765625 3.148438 -37.015625 2.609375 -37.515625 C 2.066406 -38.015625 1.796875 -38.625 1.796875 -39.34375 C 1.796875 -40.0625 2.066406 -40.679688 2.609375 -41.203125 C 3.148438 -41.722656 3.78125 -41.984375 4.5 -41.984375 Z M 4.5 -41.984375 "/></g></g></g><g fill="#bb9979" fill-opacity="1"><g transform="translate(284.59758, 228.915671)"><g><path d="M 22.546875 -18.109375 L 22.25 -18.109375 C 22.289062 -19.109375 21.976562 -20.207031 21.3125 -21.40625 C 20.65625 -22.601562 19.773438 -23.734375 18.671875 -24.796875 C 17.578125 -25.859375 16.367188 -26.707031 15.046875 -27.34375 C 13.734375 -27.988281 12.414062 -28.28125 11.09375 -28.21875 C 9.769531 -28.15625 8.570312 -27.566406 7.5 -26.453125 C 6.65625 -25.609375 6.265625 -24.613281 6.328125 -23.46875 C 6.390625 -22.332031 6.859375 -21.304688 7.734375 -20.390625 C 8.410156 -19.710938 9.414062 -19.03125 10.75 -18.34375 C 12.09375 -17.664062 13.867188 -17.046875 16.078125 -16.484375 C 17.710938 -16.046875 19.085938 -15.523438 20.203125 -14.921875 C 21.328125 -14.328125 22.25 -13.691406 22.96875 -13.015625 C 24.125 -11.859375 24.800781 -10.554688 25 -9.109375 C 25.207031 -7.671875 24.910156 -6.234375 24.109375 -4.796875 C 23.265625 -3.316406 22.203125 -2.21875 20.921875 -1.5 C 19.648438 -0.65625 18.132812 -0.0546875 16.375 0.296875 C 14.613281 0.660156 12.972656 0.800781 11.453125 0.71875 C 10.015625 0.601562 8.503906 0.285156 6.921875 -0.234375 C 5.347656 -0.753906 3.703125 -1.515625 1.984375 -2.515625 L 1.5 -2.8125 L 2.9375 -9.46875 L 3.421875 -9.359375 C 3.335938 -8.878906 3.492188 -8.238281 3.890625 -7.4375 C 4.296875 -6.632812 4.773438 -5.851562 5.328125 -5.09375 C 5.890625 -4.332031 6.351562 -3.796875 6.71875 -3.484375 C 7.519531 -2.722656 8.410156 -2.101562 9.390625 -1.625 C 10.367188 -1.144531 11.359375 -0.800781 12.359375 -0.59375 C 13.359375 -0.394531 14.347656 -0.316406 15.328125 -0.359375 C 16.304688 -0.398438 17.234375 -0.539062 18.109375 -0.78125 C 18.585938 -0.894531 19.035156 -1.039062 19.453125 -1.21875 C 19.878906 -1.40625 20.289062 -1.617188 20.6875 -1.859375 C 21.125 -2.179688 21.484375 -2.484375 21.765625 -2.765625 C 22.046875 -3.078125 22.296875 -3.410156 22.515625 -3.765625 C 22.734375 -4.128906 22.882812 -4.515625 22.96875 -4.921875 C 23.007812 -5.203125 23.019531 -5.488281 23 -5.78125 C 22.976562 -6.082031 22.925781 -6.375 22.84375 -6.65625 C 22.488281 -7.695312 21.800781 -8.523438 20.78125 -9.140625 C 19.757812 -9.765625 18.585938 -10.273438 17.265625 -10.671875 C 15.953125 -11.078125 14.613281 -11.476562 13.25 -11.875 C 11.332031 -12.4375 9.65625 -13.222656 8.21875 -14.234375 C 6.78125 -15.253906 5.707031 -16.441406 5 -17.796875 C 4.300781 -19.160156 4.09375 -20.601562 4.375 -22.125 C 4.65625 -23.644531 5.578125 -25.1875 7.140625 -26.75 C 8.179688 -27.820312 9.539062 -28.5 11.21875 -28.78125 C 12.894531 -29.0625 14.617188 -29.050781 16.390625 -28.75 C 18.171875 -28.457031 19.757812 -27.96875 21.15625 -27.28125 C 22.5625 -26.601562 23.523438 -25.828125 24.046875 -24.953125 Z M 22.546875 -18.109375 "/></g></g></g><g fill="#bb9979" fill-opacity="1"><g transform="translate(96.93572, 260.677493)"><g><path d="M 2.21875 0 L 2.21875 -12.984375 L 3.90625 -12.984375 L 3.90625 -1.015625 L 10.609375 -1.015625 L 10.609375 0 Z M 2.21875 0 "/></g></g></g><g fill="#bb9979" fill-opacity="1"><g transform="translate(111.899851, 260.677493)"><g><path d="M 1.484375 -12.984375 L 1.484375 -5 C 1.484375 -4.5 1.53125 -3.941406 1.625 -3.328125 C 1.726562 -2.710938 1.960938 -2.140625 2.328125 -1.609375 C 2.703125 -1.085938 3.253906 -0.648438 3.984375 -0.296875 C 4.710938 0.046875 5.707031 0.21875 6.96875 0.21875 C 7.757812 0.21875 8.460938 0.0976562 9.078125 -0.140625 C 9.691406 -0.390625 10.203125 -0.726562 10.609375 -1.15625 C 11.023438 -1.59375 11.335938 -2.097656 11.546875 -2.671875 C 11.765625 -3.253906 11.875 -3.875 11.875 -4.53125 L 11.875 -12.984375 L 11.046875 -12.984375 L 11.046875 -5.140625 C 11.046875 -4.867188 11.039062 -4.59375 11.03125 -4.3125 C 11.019531 -4.03125 10.984375 -3.75 10.921875 -3.46875 C 10.859375 -3.195312 10.757812 -2.925781 10.625 -2.65625 C 10.5 -2.382812 10.316406 -2.113281 10.078125 -1.84375 C 9.628906 -1.351562 9.125 -1.019531 8.5625 -0.84375 C 8.007812 -0.675781 7.429688 -0.59375 6.828125 -0.59375 C 6.304688 -0.59375 5.84375 -0.671875 5.4375 -0.828125 C 5.039062 -0.992188 4.660156 -1.238281 4.296875 -1.5625 C 4.015625 -1.800781 3.800781 -2.046875 3.65625 -2.296875 C 3.507812 -2.546875 3.394531 -2.789062 3.3125 -3.03125 C 3.238281 -3.269531 3.195312 -3.515625 3.1875 -3.765625 C 3.175781 -4.015625 3.171875 -4.257812 3.171875 -4.5 L 3.171875 -12.984375 Z M 1.484375 -12.984375 "/></g></g></g><g fill="#bb9979" fill-opacity="1"><g transform="translate(129.051883, 260.677493)"><g><path d="M 2.640625 -12.984375 L 0.5625 -12.984375 L 5.625 -6.46875 L 0.65625 0 L 1.65625 0 L 6.078125 -5.8125 L 6.15625 -5.8125 L 10.6875 0 L 12.78125 0 L 7.15625 -7.171875 L 11.59375 -12.984375 L 10.609375 -12.984375 L 6.703125 -7.875 L 6.609375 -7.875 Z M 2.640625 -12.984375 "/></g></g></g><g fill="#bb9979" fill-opacity="1"><g transform="translate(146.185366, 260.677493)"><g><path d="M 1.484375 -12.984375 L 1.484375 -5 C 1.484375 -4.5 1.53125 -3.941406 1.625 -3.328125 C 1.726562 -2.710938 1.960938 -2.140625 2.328125 -1.609375 C 2.703125 -1.085938 3.253906 -0.648438 3.984375 -0.296875 C 4.710938 0.046875 5.707031 0.21875 6.96875 0.21875 C 7.757812 0.21875 8.460938 0.0976562 9.078125 -0.140625 C 9.691406 -0.390625 10.203125 -0.726562 10.609375 -1.15625 C 11.023438 -1.59375 11.335938 -2.097656 11.546875 -2.671875 C 11.765625 -3.253906 11.875 -3.875 11.875 -4.53125 L 11.875 -12.984375 L 11.046875 -12.984375 L 11.046875 -5.140625 C 11.046875 -4.867188 11.039062 -4.59375 11.03125 -4.3125 C 11.019531 -4.03125 10.984375 -3.75 10.921875 -3.46875 C 10.859375 -3.195312 10.757812 -2.925781 10.625 -2.65625 C 10.5 -2.382812 10.316406 -2.113281 10.078125 -1.84375 C 9.628906 -1.351562 9.125 -1.019531 8.5625 -0.84375 C 8.007812 -0.675781 7.429688 -0.59375 6.828125 -0.59375 C 6.304688 -0.59375 5.84375 -0.671875 5.4375 -0.828125 C 5.039062 -0.992188 4.660156 -1.238281 4.296875 -1.5625 C 4.015625 -1.800781 3.800781 -2.046875 3.65625 -2.296875 C 3.507812 -2.546875 3.394531 -2.789062 3.3125 -3.03125 C 3.238281 -3.269531 3.195312 -3.515625 3.1875 -3.765625 C 3.175781 -4.015625 3.171875 -4.257812 3.171875 -4.5 L 3.171875 -12.984375 Z M 1.484375 -12.984375 "/></g></g></g><g fill="#bb9979" fill-opacity="1"><g transform="translate(163.337399, 260.677493)"><g><path d="M 2.21875 -12.984375 L 2.21875 0 L 3.90625 0 L 3.90625 -5.734375 L 4.734375 -5.734375 C 5.078125 -5.734375 5.363281 -5.703125 5.59375 -5.640625 C 5.820312 -5.578125 6.023438 -5.46875 6.203125 -5.3125 C 6.390625 -5.164062 6.5625 -4.972656 6.71875 -4.734375 C 6.882812 -4.503906 7.082031 -4.21875 7.3125 -3.875 L 8.765625 -1.703125 C 8.953125 -1.421875 9.132812 -1.160156 9.3125 -0.921875 C 9.5 -0.691406 9.695312 -0.492188 9.90625 -0.328125 C 10.113281 -0.160156 10.347656 -0.03125 10.609375 0.0625 C 10.878906 0.164062 11.203125 0.21875 11.578125 0.21875 C 11.847656 0.21875 12.066406 0.203125 12.234375 0.171875 C 12.410156 0.148438 12.585938 0.09375 12.765625 0 L 12.765625 -0.6875 C 12.703125 -0.675781 12.640625 -0.664062 12.578125 -0.65625 C 12.515625 -0.65625 12.453125 -0.65625 12.390625 -0.65625 C 12.128906 -0.65625 11.898438 -0.691406 11.703125 -0.765625 C 11.503906 -0.835938 11.316406 -0.941406 11.140625 -1.078125 C 10.972656 -1.222656 10.804688 -1.394531 10.640625 -1.59375 C 10.484375 -1.800781 10.316406 -2.035156 10.140625 -2.296875 C 9.617188 -3.054688 9.21875 -3.660156 8.9375 -4.109375 C 8.65625 -4.554688 8.429688 -4.90625 8.265625 -5.15625 C 8.097656 -5.40625 7.960938 -5.582031 7.859375 -5.6875 C 7.753906 -5.800781 7.625 -5.894531 7.46875 -5.96875 L 7.28125 -6.0625 L 7.28125 -6.140625 C 7.875 -6.171875 8.382812 -6.296875 8.8125 -6.515625 C 9.238281 -6.742188 9.585938 -7.023438 9.859375 -7.359375 C 10.140625 -7.691406 10.335938 -8.050781 10.453125 -8.4375 C 10.578125 -8.832031 10.640625 -9.21875 10.640625 -9.59375 C 10.640625 -9.925781 10.570312 -10.289062 10.4375 -10.6875 C 10.3125 -11.082031 10.09375 -11.445312 9.78125 -11.78125 C 9.46875 -12.125 9.035156 -12.410156 8.484375 -12.640625 C 7.941406 -12.867188 7.257812 -12.984375 6.4375 -12.984375 Z M 3.90625 -12.171875 L 5.78125 -12.171875 C 6.25 -12.171875 6.671875 -12.101562 7.046875 -11.96875 C 7.429688 -11.832031 7.757812 -11.640625 8.03125 -11.390625 C 8.300781 -11.148438 8.503906 -10.863281 8.640625 -10.53125 C 8.785156 -10.195312 8.859375 -9.832031 8.859375 -9.4375 C 8.859375 -9.101562 8.789062 -8.765625 8.65625 -8.421875 C 8.53125 -8.085938 8.335938 -7.78125 8.078125 -7.5 C 7.828125 -7.21875 7.507812 -6.988281 7.125 -6.8125 C 6.75 -6.644531 6.316406 -6.5625 5.828125 -6.5625 L 3.90625 -6.5625 Z M 3.90625 -12.171875 "/></g></g></g><g fill="#bb9979" fill-opacity="1"><g transform="translate(180.452349, 260.677493)"><g><path d="M 0.5625 -12.984375 L 5.046875 -4.921875 L 5.046875 0 L 6.734375 0 L 6.734375 -5.078125 L 11.296875 -12.984375 L 10.296875 -12.984375 L 6.328125 -6.140625 L 6.25 -6.140625 L 2.46875 -12.984375 Z M 0.5625 -12.984375 "/></g></g></g><g fill="#bb9979" fill-opacity="1"><g transform="translate(196.102514, 260.677493)"><g/></g></g><g fill="#bb9979" fill-opacity="1"><g transform="translate(206.394169, 260.677493)"><g><path d="M 0.5625 -12.984375 L 5.984375 0 L 7.109375 0 L 12.375 -12.984375 L 11.40625 -12.984375 L 7.078125 -2.296875 L 7.015625 -2.296875 L 2.5625 -12.984375 Z M 0.5625 -12.984375 "/></g></g></g><g fill="#bb9979" fill-opacity="1"><g transform="translate(223.119743, 260.677493)"><g><path d="M 2.96875 -12.984375 L 2.96875 0 L 4.65625 0 L 4.65625 -12.984375 Z M 2.96875 -12.984375 "/></g></g></g><g fill="#bb9979" fill-opacity="1"><g transform="translate(234.542426, 260.677493)"><g><path d="M 2.21875 0 L 2.21875 -12.984375 L 3.90625 -12.984375 L 3.90625 -1.015625 L 10.609375 -1.015625 L 10.609375 0 Z M 2.21875 0 "/></g></g></g><g fill="#bb9979" fill-opacity="1"><g transform="translate(249.506553, 260.677493)"><g><path d="M 2.21875 0 L 2.21875 -12.984375 L 3.90625 -12.984375 L 3.90625 -1.015625 L 10.609375 -1.015625 L 10.609375 0 Z M 2.21875 0 "/></g></g></g><g fill="#bb9979" fill-opacity="1"><g transform="translate(264.470679, 260.677493)"><g><path d="M 9.4375 -3.828125 L 11.21875 0 L 13.015625 0 L 6.96875 -12.984375 L 6.046875 -12.984375 L 0.5625 0 L 1.40625 0 L 3.046875 -3.828125 Z M 9.046875 -4.65625 L 3.390625 -4.65625 L 6.0625 -10.90625 L 6.140625 -10.90625 Z M 9.046875 -4.65625 "/></g></g></g><g clip-path="url(#ad8356f73f)"><g clip-path="url(#7b9698d8c9)"><path fill="#bb9979" d="M 80.140625 251.945312 L 86.359375 251.945312 L 86.359375 258.160156 L 80.140625 258.160156 Z M 80.140625 251.945312 " fill-opacity="1" fill-rule="nonzero"/></g></g><g clip-path="url(#64b1ad955f)"><g clip-path="url(#5254dd76ca)"><path fill="#bb9979" d="M 288.640625 251.945312 L 294.859375 251.945312 L 294.859375 258.160156 L 288.640625 258.160156 Z M 288.640625 251.945312 " fill-opacity="1" fill-rule="nonzero"/></g></g></svg>