<svg xmlns="http://www.w3.org/2000/svg" xmlns:xlink="http://www.w3.org/1999/xlink" width="500" zoomAndPan="magnify" viewBox="0 0 375 374.999991" height="500" preserveAspectRatio="xMidYMid meet" version="1.0"><defs><g/><clipPath id="2f1851dadd"><path d="M 139.242188 91.816406 L 238.992188 91.816406 L 238.992188 191.566406 L 139.242188 191.566406 Z M 139.242188 91.816406 " clip-rule="nonzero"/></clipPath><clipPath id="c092795748"><path d="M 43.367188 286.234375 L 51.796875 286.234375 L 51.796875 294.664062 L 43.367188 294.664062 Z M 43.367188 286.234375 " clip-rule="nonzero"/></clipPath><clipPath id="aa2b135f4d"><path d="M 47.582031 286.234375 L 48.921875 289.109375 L 51.796875 290.449219 L 48.921875 291.789062 L 47.582031 294.664062 L 46.242188 291.789062 L 43.367188 290.449219 L 46.242188 289.109375 Z M 47.582031 286.234375 " clip-rule="nonzero"/></clipPath><clipPath id="69771c1abe"><path d="M 326.230469 286.234375 L 334.664062 286.234375 L 334.664062 294.664062 L 326.230469 294.664062 Z M 326.230469 286.234375 " clip-rule="nonzero"/></clipPath><clipPath id="521bce44d6"><path d="M 330.445312 286.234375 L 331.789062 289.109375 L 334.664062 290.449219 L 331.789062 291.789062 L 330.445312 294.664062 L 329.105469 291.789062 L 326.230469 290.449219 L 329.105469 289.109375 Z M 330.445312 286.234375 " clip-rule="nonzero"/></clipPath></defs><g clip-path="url(#2f1851dadd)"><path fill="#bb9979" d="M 167.3125 171.613281 C 167.484375 173.570312 167.914062 175.457031 168.566406 177.234375 C 166.167969 177.730469 163.683594 177.992188 161.136719 177.992188 C 159.945312 177.992188 158.773438 177.9375 157.625 177.828125 C 157.710938 176.773438 157.839844 175.726562 158.003906 174.691406 C 161.230469 174.039062 164.355469 173 167.3125 171.613281 M 153.574219 162.242188 C 155.351562 162.894531 157.238281 163.324219 159.199219 163.496094 C 157.808594 166.453125 156.773438 169.578125 156.121094 172.804688 C 155.082031 172.972656 154.035156 173.101562 152.980469 173.183594 C 152.871094 172.035156 152.816406 170.863281 152.816406 169.671875 C 152.816406 167.125 153.078125 164.640625 153.574219 162.242188 Z M 156.117188 110.578125 C 156.769531 113.804688 157.804688 116.929688 159.195312 119.886719 C 157.238281 120.058594 155.351562 120.488281 153.574219 121.140625 C 153.078125 118.742188 152.816406 116.257812 152.816406 113.714844 C 152.816406 112.519531 152.871094 111.347656 152.980469 110.199219 C 154.035156 110.285156 155.082031 110.410156 156.117188 110.578125 Z M 210.921875 171.609375 C 213.878906 172.996094 217.003906 174.035156 220.226562 174.6875 C 220.398438 175.726562 220.523438 176.773438 220.605469 177.828125 C 219.457031 177.9375 218.285156 177.992188 217.09375 177.992188 C 214.550781 177.992188 212.066406 177.730469 209.664062 177.234375 C 210.320312 175.453125 210.75 173.566406 210.921875 171.609375 Z M 210.921875 111.777344 C 210.75 109.816406 210.320312 107.929688 209.667969 106.152344 C 212.066406 105.652344 214.550781 105.390625 217.09375 105.390625 C 218.289062 105.390625 219.460938 105.449219 220.609375 105.558594 C 220.523438 106.613281 220.398438 107.65625 220.230469 108.695312 C 217.003906 109.347656 213.878906 110.386719 210.921875 111.777344 Z M 219.03125 163.5 C 220.992188 163.324219 222.878906 162.894531 224.65625 162.242188 C 225.15625 164.640625 225.417969 167.125 225.417969 169.671875 C 225.417969 170.867188 225.359375 172.039062 225.25 173.183594 C 224.195312 173.101562 223.148438 172.972656 222.113281 172.804688 C 221.457031 169.578125 220.421875 166.453125 219.03125 163.5 Z M 224.65625 121.140625 C 222.882812 120.488281 220.996094 120.058594 219.039062 119.886719 C 220.425781 116.929688 221.460938 113.804688 222.113281 110.582031 C 223.152344 110.410156 224.199219 110.285156 225.25 110.199219 C 225.359375 111.347656 225.417969 112.519531 225.417969 113.714844 C 225.417969 116.257812 225.15625 118.742188 224.65625 121.140625 Z M 185.0625 111.527344 C 181.132812 108.410156 176.582031 106.039062 171.628906 104.640625 C 172.578125 102.808594 173.808594 101.148438 175.261719 99.707031 C 178.820312 96.1875 183.714844 94.015625 189.117188 94.015625 C 194.523438 94.015625 199.417969 96.191406 202.972656 99.710938 C 204.425781 101.148438 205.65625 102.808594 206.609375 104.640625 C 201.652344 106.039062 197.101562 108.410156 193.171875 111.527344 C 192.429688 112.121094 191.707031 112.738281 191.011719 113.378906 C 191.5 113.925781 191.972656 114.484375 192.429688 115.058594 C 193.109375 114.429688 193.8125 113.824219 194.539062 113.246094 C 198.324219 110.242188 202.722656 107.976562 207.519531 106.667969 C 208.261719 108.601562 208.707031 110.679688 208.800781 112.851562 C 204.714844 115.070312 201 117.988281 197.839844 121.511719 C 197.214844 122.210938 196.621094 122.917969 196.054688 123.644531 C 195.871094 123.878906 195.691406 124.113281 195.515625 124.347656 C 194.511719 122.359375 193.339844 120.472656 192.019531 118.699219 C 191.558594 118.082031 191.082031 117.480469 190.585938 116.890625 C 190.113281 116.332031 189.625 115.78125 189.117188 115.25 C 187.855469 113.914062 186.5 112.671875 185.0625 111.527344 Z M 167.3125 111.769531 C 164.355469 110.382812 161.230469 109.347656 158.003906 108.695312 C 157.835938 107.65625 157.707031 106.609375 157.625 105.558594 C 158.773438 105.449219 159.945312 105.390625 161.136719 105.390625 C 163.683594 105.390625 166.167969 105.652344 168.566406 106.152344 C 167.914062 107.929688 167.484375 109.8125 167.3125 111.769531 Z M 215.558594 141.691406 C 216.894531 140.429688 218.136719 139.074219 219.277344 137.636719 C 222.398438 133.707031 224.765625 129.15625 226.167969 124.199219 C 228 125.152344 229.660156 126.382812 231.097656 127.835938 C 234.617188 131.390625 236.789062 136.285156 236.789062 141.691406 C 236.789062 147.097656 234.617188 151.992188 231.097656 155.546875 C 229.660156 157 227.996094 158.230469 226.167969 159.179688 C 224.765625 154.226562 222.398438 149.675781 219.277344 145.746094 C 218.6875 145.003906 218.070312 144.28125 217.425781 143.582031 C 216.882812 144.070312 216.320312 144.542969 215.75 145 C 216.378906 145.679688 216.984375 146.382812 217.558594 147.113281 C 220.566406 150.894531 222.832031 155.296875 224.140625 160.09375 C 222.207031 160.832031 220.125 161.277344 217.957031 161.371094 C 215.738281 157.289062 212.820312 153.574219 209.292969 150.410156 C 208.597656 149.789062 207.886719 149.191406 207.160156 148.628906 C 206.929688 148.441406 206.691406 148.261719 206.457031 148.089844 C 208.445312 147.085938 210.335938 145.914062 212.105469 144.59375 C 212.722656 144.132812 213.324219 143.65625 213.914062 143.160156 C 214.476562 142.6875 215.027344 142.195312 215.558594 141.691406 Z M 198.488281 132.320312 C 197.996094 130.359375 197.355469 128.457031 196.574219 126.628906 C 196.972656 126.058594 197.375 125.511719 197.78125 124.992188 C 198.320312 124.300781 198.886719 123.628906 199.46875 122.972656 C 202.605469 119.476562 206.3125 116.617188 210.394531 114.484375 L 210.433594 114.460938 C 210.820312 114.261719 211.210938 114.066406 211.601562 113.878906 C 214.203125 112.628906 216.945312 111.675781 219.777344 111.035156 C 219.132812 113.867188 218.175781 116.613281 216.929688 119.214844 C 216.746094 119.605469 216.550781 119.992188 216.351562 120.375 L 216.332031 120.414062 C 214.199219 124.5 211.332031 128.214844 207.835938 131.347656 C 207.183594 131.933594 206.507812 132.496094 205.820312 133.035156 C 205.285156 133.453125 204.742188 133.855469 204.195312 134.238281 C 202.359375 133.457031 200.453125 132.816406 198.488281 132.320312 Z M 169.4375 170.539062 C 173.523438 168.320312 177.242188 165.398438 180.40625 161.871094 C 181.03125 161.175781 181.621094 160.46875 182.1875 159.742188 C 182.367188 159.511719 182.546875 159.277344 182.722656 159.042969 C 183.726562 161.027344 184.898438 162.914062 186.214844 164.683594 C 186.675781 165.300781 187.152344 165.902344 187.648438 166.492188 C 188.121094 167.054688 188.609375 167.601562 189.117188 168.136719 C 190.378906 169.46875 191.730469 170.714844 193.171875 171.855469 C 197.097656 174.972656 201.648438 177.34375 206.605469 178.746094 C 205.652344 180.574219 204.421875 182.238281 202.96875 183.675781 C 199.414062 187.195312 194.519531 189.367188 189.113281 189.367188 C 183.710938 189.367188 178.816406 187.195312 175.261719 183.675781 C 173.804688 182.238281 172.578125 180.574219 171.625 178.746094 C 176.578125 177.34375 181.128906 174.976562 185.058594 171.855469 C 185.804688 171.265625 186.523438 170.648438 187.222656 170.003906 C 186.734375 169.457031 186.261719 168.898438 185.804688 168.324219 C 185.125 168.957031 184.421875 169.558594 183.691406 170.136719 C 179.910156 173.144531 175.507812 175.410156 170.710938 176.714844 C 169.972656 174.785156 169.527344 172.707031 169.4375 170.539062 Z M 172.417969 150.355469 C 172.941406 149.949219 173.484375 149.546875 174.050781 149.152344 C 175.882812 149.929688 177.785156 150.570312 179.746094 151.0625 C 180.238281 153.027344 180.882812 154.9375 181.664062 156.769531 C 181.28125 157.316406 180.878906 157.859375 180.460938 158.394531 C 179.921875 159.085938 179.359375 159.757812 178.773438 160.410156 C 175.636719 163.910156 171.925781 166.773438 167.835938 168.90625 L 167.800781 168.925781 C 167.417969 169.125 167.03125 169.320312 166.640625 169.507812 C 164.035156 170.753906 161.292969 171.707031 158.457031 172.351562 C 159.101562 169.519531 160.054688 166.78125 161.300781 164.179688 C 161.488281 163.785156 161.683594 163.398438 161.886719 163.011719 L 161.90625 162.96875 C 164.039062 158.886719 166.902344 155.179688 170.398438 152.046875 C 171.050781 151.460938 171.726562 150.894531 172.417969 150.355469 Z M 225.929688 179.164062 L 225.96875 179.144531 L 225.976562 179.144531 L 225.996094 179.132812 L 226 179.132812 C 226.121094 179.082031 226.230469 179.003906 226.320312 178.914062 L 226.324219 178.914062 L 226.335938 178.902344 C 226.453125 178.785156 226.539062 178.640625 226.59375 178.480469 L 226.59375 178.476562 L 226.601562 178.457031 L 226.628906 178.363281 C 226.910156 177.144531 227.132812 175.898438 227.296875 174.636719 C 227.316406 174.5625 227.328125 174.484375 227.332031 174.40625 C 227.335938 174.382812 227.335938 174.359375 227.335938 174.332031 L 227.367188 174.058594 C 227.53125 172.605469 227.613281 171.144531 227.613281 169.667969 C 227.613281 166.816406 227.304688 164.035156 226.714844 161.359375 C 228.929688 160.273438 230.9375 158.824219 232.652344 157.089844 C 236.570312 153.132812 238.988281 147.691406 238.988281 141.6875 C 238.988281 135.6875 236.570312 130.246094 232.652344 126.289062 C 230.9375 124.554688 228.929688 123.105469 226.714844 122.019531 C 227.304688 119.34375 227.613281 116.5625 227.613281 113.710938 C 227.613281 112.238281 227.53125 110.773438 227.367188 109.324219 L 227.335938 109.050781 C 227.335938 109.027344 227.335938 109 227.332031 108.976562 C 227.328125 108.898438 227.316406 108.820312 227.296875 108.746094 C 227.132812 107.488281 226.910156 106.242188 226.628906 105.023438 C 226.617188 104.980469 226.609375 104.941406 226.59375 104.898438 L 226.585938 104.878906 L 226.585938 104.875 L 226.574219 104.851562 L 226.570312 104.832031 L 226.566406 104.828125 L 226.558594 104.808594 L 226.558594 104.804688 C 226.503906 104.683594 226.429688 104.574219 226.339844 104.484375 L 226.324219 104.46875 C 226.207031 104.355469 226.066406 104.265625 225.902344 104.210938 L 225.898438 104.210938 L 225.878906 104.203125 L 225.789062 104.175781 C 224.378906 103.851562 222.945312 103.605469 221.480469 103.4375 C 220.03125 103.273438 218.566406 103.191406 217.09375 103.191406 C 214.242188 103.191406 211.460938 103.5 208.785156 104.089844 C 207.699219 101.875 206.25 99.867188 204.519531 98.152344 C 200.558594 94.238281 195.117188 91.816406 189.117188 91.816406 C 183.113281 91.816406 177.671875 94.234375 173.714844 98.152344 C 171.980469 99.867188 170.53125 101.875 169.449219 104.089844 C 166.769531 103.503906 163.992188 103.191406 161.136719 103.191406 C 159.664062 103.191406 158.199219 103.277344 156.75 103.441406 C 155.289062 103.605469 153.851562 103.855469 152.445312 104.179688 L 152.351562 104.203125 L 152.332031 104.210938 C 152.167969 104.265625 152.027344 104.355469 151.910156 104.46875 L 151.894531 104.484375 C 151.804688 104.578125 151.730469 104.6875 151.675781 104.808594 L 151.667969 104.828125 L 151.65625 104.851562 L 151.652344 104.863281 L 151.648438 104.878906 L 151.644531 104.882812 L 151.640625 104.898438 C 151.625 104.941406 151.613281 104.984375 151.605469 105.027344 C 151.28125 106.433594 151.03125 107.867188 150.867188 109.324219 C 150.703125 110.773438 150.617188 112.238281 150.617188 113.710938 C 150.617188 116.5625 150.929688 119.34375 151.519531 122.023438 C 149.300781 123.105469 147.296875 124.554688 145.578125 126.292969 C 141.660156 130.25 139.242188 135.691406 139.242188 141.691406 C 139.242188 147.695312 141.664062 153.136719 145.578125 157.09375 C 147.296875 158.828125 149.300781 160.277344 151.515625 161.363281 C 150.925781 164.039062 150.617188 166.820312 150.617188 169.671875 C 150.617188 171.144531 150.699219 172.609375 150.867188 174.0625 C 151.03125 175.519531 151.277344 176.957031 151.605469 178.363281 L 151.628906 178.460938 L 151.632812 178.476562 L 151.632812 178.480469 C 151.6875 178.640625 151.777344 178.785156 151.894531 178.902344 L 151.90625 178.914062 C 152 179.003906 152.109375 179.078125 152.230469 179.132812 L 152.25 179.144531 L 152.257812 179.144531 L 152.28125 179.15625 L 152.320312 179.171875 C 152.363281 179.1875 152.402344 179.195312 152.445312 179.207031 C 153.667969 179.488281 154.910156 179.710938 156.167969 179.875 C 156.242188 179.894531 156.320312 179.90625 156.402344 179.910156 C 156.421875 179.910156 156.449219 179.910156 156.472656 179.910156 L 156.746094 179.941406 C 158.195312 180.105469 159.660156 180.191406 161.132812 180.191406 C 163.984375 180.191406 166.765625 179.882812 169.441406 179.292969 C 170.527344 181.507812 171.976562 183.515625 173.710938 185.230469 C 177.671875 189.148438 183.109375 191.566406 189.109375 191.566406 C 195.113281 191.566406 200.554688 189.144531 204.511719 185.230469 C 206.246094 183.511719 207.695312 181.507812 208.78125 179.292969 C 211.457031 179.882812 214.238281 180.191406 217.089844 180.191406 C 218.5625 180.191406 220.027344 180.105469 221.476562 179.941406 L 221.75 179.910156 C 221.773438 179.910156 221.796875 179.910156 221.824219 179.910156 C 221.902344 179.90625 221.976562 179.894531 222.054688 179.875 C 223.3125 179.710938 224.554688 179.488281 225.777344 179.207031 C 225.820312 179.199219 225.859375 179.1875 225.902344 179.171875 L 225.921875 179.164062 Z M 196.574219 156.757812 C 197.351562 154.925781 197.996094 153.023438 198.484375 151.0625 C 200.445312 150.570312 202.347656 149.929688 204.175781 149.152344 C 204.746094 149.546875 205.292969 149.949219 205.8125 150.355469 C 206.503906 150.898438 207.179688 151.460938 207.832031 152.046875 C 211.328125 155.179688 214.191406 158.886719 216.324219 162.96875 L 216.34375 163.011719 C 216.546875 163.398438 216.738281 163.785156 216.929688 164.179688 C 218.175781 166.78125 219.128906 169.519531 219.769531 172.351562 C 216.941406 171.707031 214.199219 170.753906 211.601562 169.507812 C 211.210938 169.320312 210.820312 169.125 210.4375 168.925781 L 210.390625 168.902344 C 206.308594 166.769531 202.601562 163.90625 199.46875 160.410156 C 198.882812 159.757812 198.320312 159.085938 197.78125 158.394531 C 197.371094 157.867188 196.972656 157.324219 196.574219 156.757812 Z M 161.304688 119.21875 C 160.054688 116.613281 159.097656 113.867188 158.457031 111.035156 C 161.292969 111.675781 164.039062 112.632812 166.644531 113.878906 C 167.03125 114.066406 167.417969 114.257812 167.796875 114.457031 L 167.839844 114.476562 C 171.925781 116.609375 175.640625 119.476562 178.777344 122.976562 C 179.359375 123.625 179.921875 124.296875 180.460938 124.992188 C 180.878906 125.527344 181.28125 126.066406 181.664062 126.617188 C 180.882812 128.453125 180.238281 130.355469 179.746094 132.324219 C 177.78125 132.816406 175.871094 133.457031 174.039062 134.242188 C 173.492188 133.855469 172.949219 133.457031 172.414062 133.039062 C 171.722656 132.496094 171.050781 131.933594 170.398438 131.351562 C 166.898438 128.214844 164.035156 124.503906 161.902344 120.417969 L 161.882812 120.378906 C 161.683594 119.992188 161.488281 119.605469 161.304688 119.21875 Z M 165.984375 141.691406 C 170.246094 138.167969 175.320312 135.59375 180.886719 134.304688 C 180.929688 134.296875 180.96875 134.285156 181.007812 134.273438 L 181.007812 134.269531 L 181.027344 134.265625 C 181.179688 134.207031 181.316406 134.121094 181.425781 134.011719 L 181.457031 133.980469 C 181.539062 133.894531 181.605469 133.792969 181.65625 133.679688 L 181.660156 133.675781 L 181.664062 133.660156 L 181.664062 133.65625 L 181.675781 133.632812 L 181.679688 133.613281 L 181.683594 133.605469 C 181.703125 133.558594 181.714844 133.507812 181.726562 133.457031 C 182.816406 128.761719 184.820312 124.410156 187.539062 120.605469 C 187.117188 119.964844 186.65625 119.351562 186.167969 118.761719 C 184.867188 120.511719 183.710938 122.378906 182.71875 124.339844 C 182.542969 124.105469 182.367188 123.871094 182.183594 123.640625 C 181.621094 122.917969 181.027344 122.207031 180.40625 121.511719 C 177.242188 117.984375 173.523438 115.0625 169.433594 112.84375 C 169.527344 110.675781 169.972656 108.597656 170.710938 106.667969 C 175.507812 107.976562 179.910156 110.242188 183.691406 113.246094 C 185.097656 114.363281 186.421875 115.582031 187.648438 116.890625 C 188.152344 117.433594 188.640625 117.988281 189.113281 118.558594 C 191.199219 121.078125 192.953125 123.882812 194.300781 126.90625 L 194.34375 126.996094 C 195.253906 129.058594 195.980469 131.222656 196.5 133.460938 C 196.507812 133.5 196.519531 133.542969 196.535156 133.582031 L 196.542969 133.601562 L 196.550781 133.625 L 196.550781 133.628906 L 196.558594 133.648438 L 196.558594 133.652344 C 196.613281 133.785156 196.695312 133.902344 196.789062 134 L 196.804688 134.011719 C 196.902344 134.109375 197.019531 134.1875 197.152344 134.242188 L 197.175781 134.253906 L 197.179688 134.253906 L 197.199219 134.261719 L 197.203125 134.261719 L 197.21875 134.269531 C 197.257812 134.285156 197.296875 134.292969 197.339844 134.304688 C 202.039062 135.390625 206.390625 137.394531 210.195312 140.113281 C 210.835938 139.691406 211.449219 139.234375 212.039062 138.742188 C 210.289062 137.441406 208.421875 136.285156 206.460938 135.292969 C 206.695312 135.117188 206.929688 134.941406 207.160156 134.761719 C 207.886719 134.195312 208.59375 133.601562 209.289062 132.980469 C 212.816406 129.816406 215.738281 126.097656 217.957031 122.007812 C 220.125 122.101562 222.203125 122.546875 224.136719 123.285156 C 222.828125 128.082031 220.5625 132.484375 217.558594 136.265625 C 216.441406 137.671875 215.222656 138.992188 213.910156 140.21875 C 213.371094 140.726562 212.816406 141.214844 212.246094 141.6875 C 209.726562 143.773438 206.921875 145.523438 203.898438 146.875 L 203.804688 146.914062 C 201.742188 147.828125 199.582031 148.554688 197.339844 149.074219 C 197.300781 149.082031 197.261719 149.09375 197.222656 149.109375 L 197.207031 149.113281 L 197.203125 149.113281 L 197.183594 149.125 L 197.179688 149.125 L 197.15625 149.132812 C 197.023438 149.1875 196.90625 149.269531 196.804688 149.363281 L 196.792969 149.378906 C 196.695312 149.476562 196.617188 149.59375 196.5625 149.726562 L 196.554688 149.75 L 196.550781 149.753906 L 196.542969 149.773438 L 196.542969 149.777344 L 196.535156 149.792969 C 196.523438 149.832031 196.511719 149.875 196.503906 149.914062 C 195.984375 152.15625 195.257812 154.316406 194.34375 156.378906 L 194.300781 156.472656 C 193.308594 158.699219 192.097656 160.808594 190.691406 162.769531 C 191.117188 163.410156 191.574219 164.023438 192.0625 164.613281 C 193.363281 162.859375 194.519531 160.992188 195.515625 159.027344 C 195.691406 159.261719 195.867188 159.496094 196.050781 159.730469 C 196.617188 160.457031 197.210938 161.167969 197.835938 161.863281 C 200.996094 165.390625 204.710938 168.308594 208.796875 170.527344 C 208.703125 172.695312 208.257812 174.777344 207.515625 176.710938 C 202.71875 175.402344 198.320312 173.136719 194.535156 170.128906 C 193.128906 169.011719 191.808594 167.796875 190.582031 166.484375 C 190.078125 165.945312 189.585938 165.390625 189.117188 164.820312 C 185.589844 160.558594 183.019531 155.484375 181.726562 149.914062 C 181.71875 149.875 181.707031 149.835938 181.695312 149.796875 L 181.6875 149.777344 L 181.671875 149.730469 C 181.617188 149.597656 181.535156 149.476562 181.4375 149.378906 L 181.425781 149.367188 C 181.328125 149.269531 181.210938 149.191406 181.078125 149.136719 L 181.074219 149.136719 L 181.050781 149.128906 L 181.050781 149.125 L 181.027344 149.117188 L 181.007812 149.113281 C 180.96875 149.097656 180.929688 149.085938 180.886719 149.078125 C 178.644531 148.558594 176.484375 147.832031 174.421875 146.917969 L 174.328125 146.875 C 172.101562 145.882812 169.992188 144.667969 168.03125 143.265625 C 167.394531 143.6875 166.777344 144.148438 166.1875 144.640625 C 167.941406 145.941406 169.808594 147.097656 171.773438 148.089844 C 171.539062 148.265625 171.308594 148.441406 171.070312 148.628906 C 170.34375 149.191406 169.636719 149.789062 168.941406 150.410156 C 165.414062 153.574219 162.496094 157.289062 160.277344 161.371094 C 158.105469 161.277344 156.027344 160.835938 154.09375 160.09375 C 155.402344 155.296875 157.667969 150.894531 160.671875 147.113281 C 161.789062 145.707031 163.007812 144.386719 164.316406 143.160156 C 164.859375 142.652344 165.414062 142.164062 165.984375 141.691406 Z M 186.515625 104.78125 C 186.515625 106.214844 187.679688 107.378906 189.117188 107.378906 C 190.550781 107.378906 191.714844 106.214844 191.714844 104.78125 C 191.714844 103.34375 190.550781 102.179688 189.117188 102.179688 C 187.679688 102.179688 186.515625 103.34375 186.515625 104.78125 Z M 226.027344 139.09375 C 224.59375 139.09375 223.429688 140.253906 223.429688 141.691406 C 223.429688 143.125 224.59375 144.289062 226.027344 144.289062 C 227.464844 144.289062 228.628906 143.125 228.628906 141.691406 C 228.628906 140.253906 227.464844 139.09375 226.027344 139.09375 Z M 152.203125 144.292969 C 153.640625 144.292969 154.804688 143.128906 154.804688 141.691406 C 154.804688 140.257812 153.640625 139.09375 152.203125 139.09375 C 150.769531 139.09375 149.605469 140.257812 149.605469 141.691406 C 149.605469 143.128906 150.769531 144.292969 152.203125 144.292969 Z M 191.714844 178.601562 C 191.714844 177.167969 190.554688 176.003906 189.117188 176.003906 C 187.679688 176.003906 186.519531 177.167969 186.519531 178.601562 C 186.519531 180.039062 187.679688 181.203125 189.117188 181.203125 C 190.554688 181.203125 191.714844 180.039062 191.714844 178.601562 Z M 154.09375 123.289062 C 156.023438 122.550781 158.101562 122.105469 160.269531 122.011719 C 162.488281 126.097656 165.410156 129.820312 168.941406 132.980469 C 169.632812 133.601562 170.34375 134.199219 171.066406 134.761719 C 171.296875 134.945312 171.53125 135.121094 171.765625 135.296875 C 169.78125 136.300781 167.894531 137.472656 166.125 138.789062 C 165.507812 139.25 164.90625 139.730469 164.316406 140.222656 C 163.757812 140.695312 163.207031 141.1875 162.675781 141.691406 C 161.339844 142.953125 160.097656 144.308594 158.953125 145.746094 C 155.832031 149.675781 153.464844 154.226562 152.0625 159.179688 C 150.234375 158.230469 148.570312 157 147.132812 155.546875 C 143.613281 151.992188 141.441406 147.097656 141.441406 141.691406 C 141.441406 136.285156 143.613281 131.394531 147.132812 127.835938 C 148.570312 126.382812 150.234375 125.152344 152.0625 124.199219 C 153.464844 129.15625 155.832031 133.707031 158.953125 137.636719 C 159.542969 138.378906 160.160156 139.101562 160.804688 139.800781 C 161.351562 139.3125 161.910156 138.839844 162.484375 138.382812 C 161.851562 137.699219 161.25 136.996094 160.671875 136.269531 C 157.664062 132.484375 155.398438 128.085938 154.09375 123.289062 Z M 154.09375 123.289062 " fill-opacity="1" fill-rule="evenodd"/></g><g fill="#bb9979" fill-opacity="1"><g transform="translate(21.128272, 254.990565)"><g><path d="M 51.328125 -18.625 C 51.328125 -21.007812 50.878906 -22.742188 49.984375 -23.828125 C 49.085938 -24.910156 47.988281 -25.613281 46.6875 -25.9375 C 45.382812 -26.269531 44.03125 -26.4375 42.625 -26.4375 L 37.421875 -26.4375 L 37.421875 -27.171875 L 58.96875 -27.171875 L 58.96875 -26.4375 C 58.425781 -26.4375 58.0625 -26.03125 57.875 -25.21875 C 57.6875 -24.40625 57.5625 -23.441406 57.5 -22.328125 C 57.445312 -21.210938 57.316406 -20.222656 57.109375 -19.359375 C 56.128906 -14.960938 54.320312 -11.300781 51.6875 -8.375 C 49.0625 -5.445312 45.945312 -3.25 42.34375 -1.78125 C 38.738281 -0.320312 34.941406 0.363281 30.953125 0.28125 C 26.960938 0.195312 23.109375 -0.628906 19.390625 -2.203125 C 15.679688 -3.773438 12.414062 -6.128906 9.59375 -9.265625 C 6.78125 -12.410156 4.75 -16.34375 3.5 -21.0625 C 2.46875 -24.914062 2.222656 -28.726562 2.765625 -32.5 C 3.304688 -36.269531 4.507812 -39.765625 6.375 -42.984375 C 8.25 -46.210938 10.675781 -49.003906 13.65625 -51.359375 C 16.644531 -53.722656 20.066406 -55.421875 23.921875 -56.453125 C 27.609375 -57.484375 31.265625 -57.753906 34.890625 -57.265625 C 38.523438 -56.773438 41.925781 -55.675781 45.09375 -53.96875 C 48.269531 -52.257812 51.023438 -50.023438 53.359375 -47.265625 L 51.40625 -40.109375 L 50.671875 -40.109375 C 49.429688 -42.648438 47.890625 -45.019531 46.046875 -47.21875 C 44.203125 -49.414062 42.140625 -51.300781 39.859375 -52.875 C 37.578125 -54.445312 35.109375 -55.515625 32.453125 -56.078125 C 29.796875 -56.648438 27.003906 -56.554688 24.078125 -55.796875 C 20.609375 -54.878906 17.71875 -53.238281 15.40625 -50.875 C 13.101562 -48.519531 11.351562 -45.753906 10.15625 -42.578125 C 8.96875 -39.410156 8.304688 -36.085938 8.171875 -32.609375 C 8.035156 -29.140625 8.375 -25.804688 9.1875 -22.609375 C 10.269531 -18.648438 11.867188 -15.25 13.984375 -12.40625 C 16.097656 -9.5625 18.535156 -7.285156 21.296875 -5.578125 C 24.066406 -3.867188 26.972656 -2.726562 30.015625 -2.15625 C 33.054688 -1.582031 36.039062 -1.566406 38.96875 -2.109375 C 41.726562 -2.710938 43.9375 -3.609375 45.59375 -4.796875 C 47.25 -5.992188 48.484375 -7.378906 49.296875 -8.953125 C 50.109375 -10.523438 50.648438 -12.148438 50.921875 -13.828125 C 51.191406 -15.503906 51.328125 -17.101562 51.328125 -18.625 Z M 51.328125 -18.625 "/></g></g></g><g fill="#bb9979" fill-opacity="1"><g transform="translate(82.548099, 254.990565)"><g><path d="M 17.484375 0 L 17.484375 -39.203125 L 9.921875 -36.28125 L 10.171875 -35.625 C 10.390625 -35.625 10.671875 -35.40625 11.015625 -34.96875 C 11.367188 -34.539062 11.65625 -33.59375 11.875 -32.125 L 11.875 0 C 11.875 0 11.859375 0.5 11.828125 1.5 C 11.804688 2.507812 11.710938 3.8125 11.546875 5.40625 C 11.390625 7.007812 11.117188 8.703125 10.734375 10.484375 C 10.359375 12.273438 9.800781 13.972656 9.0625 15.578125 C 8.332031 17.179688 7.398438 18.484375 6.265625 19.484375 C 5.128906 20.484375 3.71875 20.984375 2.03125 20.984375 L 2.03125 21.5625 C 4.582031 21.5625 7.035156 20.742188 9.390625 19.109375 C 11.753906 17.484375 13.691406 15.070312 15.203125 11.875 C 16.722656 8.675781 17.484375 4.71875 17.484375 0 Z M 13.90625 -45.796875 C 12.875 -45.796875 11.976562 -46.175781 11.21875 -46.9375 C 10.46875 -47.695312 10.09375 -48.59375 10.09375 -49.625 C 10.09375 -50.707031 10.46875 -51.613281 11.21875 -52.34375 C 11.976562 -53.070312 12.875 -53.4375 13.90625 -53.4375 C 14.988281 -53.4375 15.894531 -53.070312 16.625 -52.34375 C 17.363281 -51.613281 17.734375 -50.707031 17.734375 -49.625 C 17.734375 -48.59375 17.363281 -47.695312 16.625 -46.9375 C 15.894531 -46.175781 14.988281 -45.796875 13.90625 -45.796875 Z M 13.90625 -45.796875 "/></g></g></g><g fill="#bb9979" fill-opacity="1"><g transform="translate(102.316337, 254.990565)"><g><path d="M 2.765625 -14.890625 C 1.847656 -18.410156 1.863281 -21.851562 2.8125 -25.21875 C 3.757812 -28.582031 5.453125 -31.523438 7.890625 -34.046875 C 10.328125 -36.566406 13.3125 -38.285156 16.84375 -39.203125 C 20.414062 -40.179688 23.882812 -40.195312 27.25 -39.25 C 30.613281 -38.300781 33.554688 -36.601562 36.078125 -34.15625 C 38.597656 -31.71875 40.316406 -28.710938 41.234375 -25.140625 C 42.210938 -21.609375 42.210938 -18.160156 41.234375 -14.796875 C 40.265625 -11.441406 38.554688 -8.515625 36.109375 -6.015625 C 33.671875 -3.523438 30.691406 -1.789062 27.171875 -0.8125 C 23.640625 0.101562 20.179688 0.101562 16.796875 -0.8125 C 13.410156 -1.738281 10.46875 -3.429688 7.96875 -5.890625 C 5.476562 -8.359375 3.742188 -11.359375 2.765625 -14.890625 Z M 35.703125 -23.671875 C 35.160156 -25.617188 34.320312 -27.609375 33.1875 -29.640625 C 32.050781 -31.679688 30.65625 -33.488281 29 -35.0625 C 27.34375 -36.632812 25.5 -37.769531 23.46875 -38.46875 C 21.4375 -39.175781 19.28125 -39.234375 17 -38.640625 C 14.71875 -38.046875 12.882812 -36.921875 11.5 -35.265625 C 10.125 -33.609375 9.109375 -31.695312 8.453125 -29.53125 C 7.804688 -27.363281 7.484375 -25.113281 7.484375 -22.78125 C 7.484375 -20.445312 7.753906 -18.300781 8.296875 -16.34375 C 8.835938 -14.394531 9.675781 -12.40625 10.8125 -10.375 C 11.957031 -8.34375 13.351562 -6.539062 15 -4.96875 C 16.65625 -3.394531 18.5 -2.238281 20.53125 -1.5 C 22.570312 -0.769531 24.726562 -0.734375 27 -1.390625 C 29.28125 -1.984375 31.125 -3.101562 32.53125 -4.75 C 33.945312 -6.40625 34.960938 -8.316406 35.578125 -10.484375 C 36.203125 -12.660156 36.515625 -14.914062 36.515625 -17.25 C 36.515625 -19.582031 36.242188 -21.722656 35.703125 -23.671875 Z M 35.703125 -23.671875 "/></g></g></g><g fill="#bb9979" fill-opacity="1"><g transform="translate(146.327106, 254.990565)"><g><path d="M 12.453125 -32.21875 L 22.6875 -7.40625 L 32.125 -30.015625 C 33.207031 -32.617188 33.789062 -34.675781 33.875 -36.1875 C 33.957031 -37.707031 33.457031 -38.46875 32.375 -38.46875 L 32.375 -39.203125 L 39.203125 -39.203125 L 39.203125 -38.46875 C 38.609375 -38.46875 37.738281 -37.859375 36.59375 -36.640625 C 35.457031 -35.421875 34.101562 -32.941406 32.53125 -29.203125 L 23.109375 -6.421875 L 25.78125 0 L 19.6875 0 L 6.5 -31.890625 C 5.800781 -33.515625 5.046875 -35.015625 4.234375 -36.390625 C 3.421875 -37.773438 2.6875 -38.46875 2.03125 -38.46875 L 2.03125 -39.203125 L 11.46875 -39.203125 L 11.46875 -38.46875 C 11.09375 -38.46875 10.914062 -38.019531 10.9375 -37.125 C 10.96875 -36.238281 11.472656 -34.601562 12.453125 -32.21875 Z M 12.453125 -32.21875 "/></g></g></g><g fill="#bb9979" fill-opacity="1"><g transform="translate(187.571939, 254.990565)"><g><path d="M 39.203125 -0.734375 L 39.203125 0 L 31.71875 0 L 31.71875 -23.421875 C 31.71875 -24.890625 31.648438 -26.503906 31.515625 -28.265625 C 31.378906 -30.023438 31.039062 -31.71875 30.5 -33.34375 C 29.957031 -34.976562 29.128906 -36.304688 28.015625 -37.328125 C 26.910156 -38.359375 25.378906 -38.875 23.421875 -38.875 C 20.816406 -38.875 18.675781 -38.410156 17 -37.484375 C 15.320312 -36.566406 14.171875 -35.566406 13.546875 -34.484375 C 12.921875 -33.398438 12.851562 -32.5625 13.34375 -31.96875 C 13.832031 -31.425781 14.78125 -31.113281 16.1875 -31.03125 C 17.59375 -30.945312 18.972656 -30.632812 20.328125 -30.09375 C 22.117188 -29.394531 23.539062 -28.285156 24.59375 -26.765625 C 25.65625 -25.242188 26.40625 -23.503906 26.84375 -21.546875 C 27.28125 -19.597656 27.441406 -17.644531 27.328125 -15.6875 C 27.222656 -13.738281 26.84375 -11.976562 26.1875 -10.40625 C 25 -7.257812 23.171875 -4.65625 20.703125 -2.59375 C 18.234375 -0.539062 15.5625 0.429688 12.6875 0.328125 C 9.976562 0.210938 7.78125 -0.519531 6.09375 -1.875 C 4.414062 -3.226562 3.265625 -4.945312 2.640625 -7.03125 C 2.015625 -9.125 1.945312 -11.320312 2.4375 -13.625 C 2.925781 -15.925781 3.96875 -18.117188 5.5625 -20.203125 C 7.164062 -22.296875 9.363281 -24.035156 12.15625 -25.421875 C 14.945312 -26.804688 18.351562 -27.578125 22.375 -27.734375 C 22.476562 -27.785156 22.664062 -27.8125 22.9375 -27.8125 C 22.125 -28.519531 21.175781 -29.09375 20.09375 -29.53125 C 18.84375 -30.070312 17.441406 -30.351562 15.890625 -30.375 C 14.347656 -30.40625 12.976562 -30.351562 11.78125 -30.21875 C 10.59375 -30.082031 9.835938 -29.960938 9.515625 -29.859375 C 9.347656 -30.992188 9.820312 -32.304688 10.9375 -33.796875 C 12.050781 -35.285156 13.675781 -36.597656 15.8125 -37.734375 C 17.957031 -38.878906 20.492188 -39.453125 23.421875 -39.453125 C 26.953125 -39.453125 29.71875 -38.757812 31.71875 -37.375 C 33.726562 -35.988281 35.164062 -34.085938 36.03125 -31.671875 C 36.90625 -29.265625 37.34375 -26.515625 37.34375 -23.421875 L 37.34375 -7 C 37.34375 -4.34375 37.597656 -2.632812 38.109375 -1.875 C 38.617188 -1.113281 38.984375 -0.734375 39.203125 -0.734375 Z M 23.515625 -27.171875 C 20.640625 -27.171875 17.992188 -26.664062 15.578125 -25.65625 C 13.160156 -24.65625 11.234375 -23.148438 9.796875 -21.140625 C 8.359375 -19.140625 7.640625 -16.566406 7.640625 -13.421875 C 7.640625 -11.898438 7.867188 -10.394531 8.328125 -8.90625 C 8.796875 -7.414062 9.546875 -6.128906 10.578125 -5.046875 C 11.609375 -3.960938 12.9375 -3.253906 14.5625 -2.921875 C 16.289062 -2.597656 17.890625 -2.789062 19.359375 -3.5 C 20.828125 -4.207031 22.101562 -5.195312 23.1875 -6.46875 C 24.269531 -7.738281 25.109375 -9.109375 25.703125 -10.578125 C 26.410156 -12.304688 26.800781 -14.1875 26.875 -16.21875 C 26.957031 -18.257812 26.726562 -20.238281 26.1875 -22.15625 C 25.644531 -24.082031 24.753906 -25.753906 23.515625 -27.171875 Z M 23.515625 -27.171875 "/></g></g></g><g fill="#bb9979" fill-opacity="1"><g transform="translate(228.816772, 254.990565)"><g><path d="M 2.03125 -38.46875 L 2.03125 -39.203125 L 9.515625 -39.203125 L 9.515625 -18.140625 C 9.835938 -20.628906 10.285156 -22.878906 10.859375 -24.890625 C 11.429688 -26.898438 12.066406 -28.691406 12.765625 -30.265625 C 13.472656 -31.773438 14.351562 -33.234375 15.40625 -34.640625 C 16.46875 -36.054688 17.703125 -37.222656 19.109375 -38.140625 C 20.523438 -39.066406 22.128906 -39.53125 23.921875 -39.53125 C 26.898438 -39.53125 29.144531 -38.753906 30.65625 -37.203125 C 32.175781 -35.660156 33.222656 -33.695312 33.796875 -31.3125 C 34.367188 -28.925781 34.65625 -26.515625 34.65625 -24.078125 L 34.65625 -7 C 34.65625 -4.34375 34.910156 -2.632812 35.421875 -1.875 C 35.941406 -1.113281 36.304688 -0.734375 36.515625 -0.734375 L 36.515625 0 L 27.09375 0 L 27.09375 -0.734375 C 27.363281 -0.734375 27.738281 -1.113281 28.21875 -1.875 C 28.707031 -2.632812 28.953125 -4.34375 28.953125 -7 L 28.953125 -24.078125 C 28.953125 -25.054688 28.898438 -26.222656 28.796875 -27.578125 C 28.691406 -28.929688 28.460938 -30.296875 28.109375 -31.671875 C 27.753906 -33.054688 27.238281 -34.28125 26.5625 -35.34375 C 25.882812 -36.40625 24.972656 -37.125 23.828125 -37.5 C 22.316406 -38.039062 20.867188 -37.90625 19.484375 -37.09375 C 18.097656 -36.28125 16.890625 -35.195312 15.859375 -33.84375 C 14.828125 -32.488281 14.015625 -31.1875 13.421875 -29.9375 C 12.222656 -27.382812 11.269531 -24.207031 10.5625 -20.40625 C 9.863281 -16.613281 9.515625 -12.144531 9.515625 -7 C 9.515625 -4.34375 9.769531 -2.632812 10.28125 -1.875 C 10.800781 -1.113281 11.171875 -0.734375 11.390625 -0.734375 L 11.390625 0 L 2.03125 0 L 2.03125 -0.734375 C 2.300781 -0.734375 2.679688 -1.113281 3.171875 -1.875 C 3.660156 -2.632812 3.90625 -4.34375 3.90625 -7 L 3.90625 -32.21875 C 3.90625 -34.875 3.660156 -36.578125 3.171875 -37.328125 C 2.679688 -38.085938 2.300781 -38.46875 2.03125 -38.46875 Z M 2.03125 -38.46875 "/></g></g></g><g fill="#bb9979" fill-opacity="1"><g transform="translate(267.377024, 254.990565)"><g><path d="M 39.203125 -0.734375 L 39.203125 0 L 31.71875 0 L 31.71875 -23.421875 C 31.71875 -24.890625 31.648438 -26.503906 31.515625 -28.265625 C 31.378906 -30.023438 31.039062 -31.71875 30.5 -33.34375 C 29.957031 -34.976562 29.128906 -36.304688 28.015625 -37.328125 C 26.910156 -38.359375 25.378906 -38.875 23.421875 -38.875 C 20.816406 -38.875 18.675781 -38.410156 17 -37.484375 C 15.320312 -36.566406 14.171875 -35.566406 13.546875 -34.484375 C 12.921875 -33.398438 12.851562 -32.5625 13.34375 -31.96875 C 13.832031 -31.425781 14.78125 -31.113281 16.1875 -31.03125 C 17.59375 -30.945312 18.972656 -30.632812 20.328125 -30.09375 C 22.117188 -29.394531 23.539062 -28.285156 24.59375 -26.765625 C 25.65625 -25.242188 26.40625 -23.503906 26.84375 -21.546875 C 27.28125 -19.597656 27.441406 -17.644531 27.328125 -15.6875 C 27.222656 -13.738281 26.84375 -11.976562 26.1875 -10.40625 C 25 -7.257812 23.171875 -4.65625 20.703125 -2.59375 C 18.234375 -0.539062 15.5625 0.429688 12.6875 0.328125 C 9.976562 0.210938 7.78125 -0.519531 6.09375 -1.875 C 4.414062 -3.226562 3.265625 -4.945312 2.640625 -7.03125 C 2.015625 -9.125 1.945312 -11.320312 2.4375 -13.625 C 2.925781 -15.925781 3.96875 -18.117188 5.5625 -20.203125 C 7.164062 -22.296875 9.363281 -24.035156 12.15625 -25.421875 C 14.945312 -26.804688 18.351562 -27.578125 22.375 -27.734375 C 22.476562 -27.785156 22.664062 -27.8125 22.9375 -27.8125 C 22.125 -28.519531 21.175781 -29.09375 20.09375 -29.53125 C 18.84375 -30.070312 17.441406 -30.351562 15.890625 -30.375 C 14.347656 -30.40625 12.976562 -30.351562 11.78125 -30.21875 C 10.59375 -30.082031 9.835938 -29.960938 9.515625 -29.859375 C 9.347656 -30.992188 9.820312 -32.304688 10.9375 -33.796875 C 12.050781 -35.285156 13.675781 -36.597656 15.8125 -37.734375 C 17.957031 -38.878906 20.492188 -39.453125 23.421875 -39.453125 C 26.953125 -39.453125 29.71875 -38.757812 31.71875 -37.375 C 33.726562 -35.988281 35.164062 -34.085938 36.03125 -31.671875 C 36.90625 -29.265625 37.34375 -26.515625 37.34375 -23.421875 L 37.34375 -7 C 37.34375 -4.34375 37.597656 -2.632812 38.109375 -1.875 C 38.617188 -1.113281 38.984375 -0.734375 39.203125 -0.734375 Z M 23.515625 -27.171875 C 20.640625 -27.171875 17.992188 -26.664062 15.578125 -25.65625 C 13.160156 -24.65625 11.234375 -23.148438 9.796875 -21.140625 C 8.359375 -19.140625 7.640625 -16.566406 7.640625 -13.421875 C 7.640625 -11.898438 7.867188 -10.394531 8.328125 -8.90625 C 8.796875 -7.414062 9.546875 -6.128906 10.578125 -5.046875 C 11.609375 -3.960938 12.9375 -3.253906 14.5625 -2.921875 C 16.289062 -2.597656 17.890625 -2.789062 19.359375 -3.5 C 20.828125 -4.207031 22.101562 -5.195312 23.1875 -6.46875 C 24.269531 -7.738281 25.109375 -9.109375 25.703125 -10.578125 C 26.410156 -12.304688 26.800781 -14.1875 26.875 -16.21875 C 26.957031 -18.257812 26.726562 -20.238281 26.1875 -22.15625 C 25.644531 -24.082031 24.753906 -25.753906 23.515625 -27.171875 Z M 23.515625 -27.171875 "/></g></g></g><g fill="#bb9979" fill-opacity="1"><g transform="translate(308.621857, 254.990565)"><g><path d="M 6.09375 -56.9375 C 7.125 -56.9375 7.976562 -56.582031 8.65625 -55.875 C 9.34375 -55.175781 9.6875 -54.335938 9.6875 -53.359375 C 9.6875 -51.628906 9.207031 -50.164062 8.25 -48.96875 C 7.300781 -47.769531 6.015625 -47.171875 4.390625 -47.171875 L 4.390625 -47.90625 C 5.367188 -47.90625 6.019531 -48.082031 6.34375 -48.4375 C 6.664062 -48.789062 6.828125 -49.128906 6.828125 -49.453125 C 6.828125 -49.773438 6.828125 -49.9375 6.828125 -49.9375 C 6.722656 -49.882812 6.476562 -49.859375 6.09375 -49.859375 C 5.125 -49.859375 4.269531 -50.195312 3.53125 -50.875 C 2.800781 -51.550781 2.4375 -52.378906 2.4375 -53.359375 C 2.4375 -54.335938 2.800781 -55.175781 3.53125 -55.875 C 4.269531 -56.582031 5.125 -56.9375 6.09375 -56.9375 Z M 6.09375 -56.9375 "/></g></g></g><g fill="#bb9979" fill-opacity="1"><g transform="translate(320.743111, 254.990565)"><g><path d="M 30.578125 -24.5625 L 30.171875 -24.5625 C 30.234375 -25.914062 29.816406 -27.40625 28.921875 -29.03125 C 28.023438 -30.664062 26.832031 -32.203125 25.34375 -33.640625 C 23.851562 -35.078125 22.210938 -36.226562 20.421875 -37.09375 C 18.628906 -37.957031 16.835938 -38.347656 15.046875 -38.265625 C 13.253906 -38.191406 11.628906 -37.394531 10.171875 -35.875 C 9.023438 -34.738281 8.492188 -33.394531 8.578125 -31.84375 C 8.660156 -30.300781 9.300781 -28.90625 10.5 -27.65625 C 11.414062 -26.738281 12.78125 -25.816406 14.59375 -24.890625 C 16.414062 -23.972656 18.816406 -23.132812 21.796875 -22.375 C 24.023438 -21.769531 25.894531 -21.0625 27.40625 -20.25 C 28.925781 -19.4375 30.175781 -18.570312 31.15625 -17.65625 C 32.726562 -16.082031 33.648438 -14.316406 33.921875 -12.359375 C 34.191406 -10.410156 33.785156 -8.457031 32.703125 -6.5 C 31.554688 -4.5 30.117188 -3.007812 28.390625 -2.03125 C 26.648438 -0.894531 24.585938 -0.0820312 22.203125 0.40625 C 19.816406 0.894531 17.59375 1.082031 15.53125 0.96875 C 13.582031 0.8125 11.535156 0.378906 9.390625 -0.328125 C 7.253906 -1.035156 5.019531 -2.066406 2.6875 -3.421875 L 2.03125 -3.828125 L 3.984375 -12.859375 L 4.640625 -12.6875 C 4.523438 -12.039062 4.738281 -11.171875 5.28125 -10.078125 C 5.820312 -8.992188 6.472656 -7.9375 7.234375 -6.90625 C 7.992188 -5.882812 8.617188 -5.15625 9.109375 -4.71875 C 10.191406 -3.6875 11.394531 -2.84375 12.71875 -2.1875 C 14.050781 -1.539062 15.394531 -1.082031 16.75 -0.8125 C 18.113281 -0.539062 19.457031 -0.429688 20.78125 -0.484375 C 22.113281 -0.535156 23.375 -0.726562 24.5625 -1.0625 C 25.21875 -1.21875 25.828125 -1.414062 26.390625 -1.65625 C 26.960938 -1.90625 27.519531 -2.191406 28.0625 -2.515625 C 28.65625 -2.953125 29.144531 -3.359375 29.53125 -3.734375 C 29.90625 -4.171875 30.238281 -4.632812 30.53125 -5.125 C 30.832031 -5.613281 31.039062 -6.128906 31.15625 -6.671875 C 31.207031 -7.046875 31.21875 -7.4375 31.1875 -7.84375 C 31.164062 -8.25 31.097656 -8.644531 30.984375 -9.03125 C 30.503906 -10.4375 29.570312 -11.5625 28.1875 -12.40625 C 26.800781 -13.25 25.210938 -13.941406 23.421875 -14.484375 C 21.640625 -15.023438 19.828125 -15.566406 17.984375 -16.109375 C 15.378906 -16.867188 13.097656 -17.9375 11.140625 -19.3125 C 9.191406 -20.695312 7.742188 -22.3125 6.796875 -24.15625 C 5.847656 -26 5.5625 -27.953125 5.9375 -30.015625 C 6.3125 -32.078125 7.5625 -34.164062 9.6875 -36.28125 C 11.09375 -37.738281 12.929688 -38.65625 15.203125 -39.03125 C 17.484375 -39.414062 19.832031 -39.40625 22.25 -39 C 24.664062 -38.59375 26.820312 -37.925781 28.71875 -37 C 30.613281 -36.082031 31.914062 -35.03125 32.625 -33.84375 Z M 30.578125 -24.5625 "/></g></g></g><g fill="#bb9979" fill-opacity="1"><g transform="translate(66.149076, 298.080642)"><g><path d="M 3.015625 0 L 3.015625 -17.609375 L 5.3125 -17.609375 L 5.3125 -1.390625 L 14.390625 -1.390625 L 14.390625 0 Z M 3.015625 0 "/></g></g></g><g fill="#bb9979" fill-opacity="1"><g transform="translate(86.450369, 298.080642)"><g><path d="M 2.015625 -17.609375 L 2.015625 -6.796875 C 2.015625 -6.109375 2.082031 -5.347656 2.21875 -4.515625 C 2.351562 -3.679688 2.671875 -2.90625 3.171875 -2.1875 C 3.671875 -1.476562 4.414062 -0.882812 5.40625 -0.40625 C 6.394531 0.0625 7.742188 0.296875 9.453125 0.296875 C 10.523438 0.296875 11.476562 0.128906 12.3125 -0.203125 C 13.144531 -0.535156 13.84375 -0.992188 14.40625 -1.578125 C 14.96875 -2.171875 15.390625 -2.859375 15.671875 -3.640625 C 15.953125 -4.421875 16.09375 -5.253906 16.09375 -6.140625 L 16.09375 -17.609375 L 15 -17.609375 L 15 -6.96875 C 15 -6.601562 14.988281 -6.226562 14.96875 -5.84375 C 14.945312 -5.46875 14.894531 -5.09375 14.8125 -4.71875 C 14.726562 -4.34375 14.597656 -3.96875 14.421875 -3.59375 C 14.242188 -3.226562 13.988281 -2.859375 13.65625 -2.484375 C 13.050781 -1.835938 12.367188 -1.394531 11.609375 -1.15625 C 10.859375 -0.925781 10.070312 -0.8125 9.25 -0.8125 C 8.550781 -0.8125 7.925781 -0.914062 7.375 -1.125 C 6.832031 -1.34375 6.320312 -1.671875 5.84375 -2.109375 C 5.445312 -2.441406 5.148438 -2.773438 4.953125 -3.109375 C 4.753906 -3.453125 4.601562 -3.785156 4.5 -4.109375 C 4.40625 -4.441406 4.347656 -4.773438 4.328125 -5.109375 C 4.304688 -5.441406 4.296875 -5.773438 4.296875 -6.109375 L 4.296875 -17.609375 Z M 2.015625 -17.609375 "/></g></g></g><g fill="#bb9979" fill-opacity="1"><g transform="translate(109.719909, 298.080642)"><g><path d="M 3.578125 -17.609375 L 0.75 -17.609375 L 7.625 -8.78125 L 0.875 0 L 2.234375 0 L 8.25 -7.875 L 8.359375 -7.875 L 14.484375 0 L 17.328125 0 L 9.703125 -9.734375 L 15.71875 -17.609375 L 14.390625 -17.609375 L 9.078125 -10.6875 L 8.953125 -10.6875 Z M 3.578125 -17.609375 "/></g></g></g><g fill="#bb9979" fill-opacity="1"><g transform="translate(132.964284, 298.080642)"><g><path d="M 2.015625 -17.609375 L 2.015625 -6.796875 C 2.015625 -6.109375 2.082031 -5.347656 2.21875 -4.515625 C 2.351562 -3.679688 2.671875 -2.90625 3.171875 -2.1875 C 3.671875 -1.476562 4.414062 -0.882812 5.40625 -0.40625 C 6.394531 0.0625 7.742188 0.296875 9.453125 0.296875 C 10.523438 0.296875 11.476562 0.128906 12.3125 -0.203125 C 13.144531 -0.535156 13.84375 -0.992188 14.40625 -1.578125 C 14.96875 -2.171875 15.390625 -2.859375 15.671875 -3.640625 C 15.953125 -4.421875 16.09375 -5.253906 16.09375 -6.140625 L 16.09375 -17.609375 L 15 -17.609375 L 15 -6.96875 C 15 -6.601562 14.988281 -6.226562 14.96875 -5.84375 C 14.945312 -5.46875 14.894531 -5.09375 14.8125 -4.71875 C 14.726562 -4.34375 14.597656 -3.96875 14.421875 -3.59375 C 14.242188 -3.226562 13.988281 -2.859375 13.65625 -2.484375 C 13.050781 -1.835938 12.367188 -1.394531 11.609375 -1.15625 C 10.859375 -0.925781 10.070312 -0.8125 9.25 -0.8125 C 8.550781 -0.8125 7.925781 -0.914062 7.375 -1.125 C 6.832031 -1.34375 6.320312 -1.671875 5.84375 -2.109375 C 5.445312 -2.441406 5.148438 -2.773438 4.953125 -3.109375 C 4.753906 -3.453125 4.601562 -3.785156 4.5 -4.109375 C 4.40625 -4.441406 4.347656 -4.773438 4.328125 -5.109375 C 4.304688 -5.441406 4.296875 -5.773438 4.296875 -6.109375 L 4.296875 -17.609375 Z M 2.015625 -17.609375 "/></g></g></g><g fill="#bb9979" fill-opacity="1"><g transform="translate(156.233826, 298.080642)"><g><path d="M 3.015625 -17.609375 L 3.015625 0 L 5.3125 0 L 5.3125 -7.765625 L 6.421875 -7.765625 C 6.890625 -7.765625 7.273438 -7.722656 7.578125 -7.640625 C 7.890625 -7.554688 8.171875 -7.414062 8.421875 -7.21875 C 8.679688 -7.019531 8.914062 -6.757812 9.125 -6.4375 C 9.34375 -6.125 9.601562 -5.726562 9.90625 -5.25 L 11.90625 -2.3125 C 12.15625 -1.925781 12.398438 -1.570312 12.640625 -1.25 C 12.878906 -0.9375 13.140625 -0.664062 13.421875 -0.4375 C 13.710938 -0.207031 14.035156 -0.03125 14.390625 0.09375 C 14.753906 0.226562 15.191406 0.296875 15.703125 0.296875 C 16.066406 0.296875 16.363281 0.28125 16.59375 0.25 C 16.832031 0.21875 17.070312 0.132812 17.3125 0 L 17.3125 -0.9375 C 17.226562 -0.914062 17.144531 -0.898438 17.0625 -0.890625 C 16.976562 -0.878906 16.890625 -0.875 16.796875 -0.875 C 16.453125 -0.875 16.144531 -0.925781 15.875 -1.03125 C 15.601562 -1.132812 15.347656 -1.28125 15.109375 -1.46875 C 14.878906 -1.664062 14.65625 -1.898438 14.4375 -2.171875 C 14.21875 -2.453125 13.992188 -2.769531 13.765625 -3.125 C 13.054688 -4.144531 12.507812 -4.957031 12.125 -5.5625 C 11.738281 -6.175781 11.429688 -6.648438 11.203125 -6.984375 C 10.984375 -7.328125 10.800781 -7.570312 10.65625 -7.71875 C 10.507812 -7.875 10.335938 -8 10.140625 -8.09375 L 9.890625 -8.21875 L 9.890625 -8.328125 C 10.691406 -8.378906 11.378906 -8.554688 11.953125 -8.859375 C 12.535156 -9.160156 13.007812 -9.535156 13.375 -9.984375 C 13.75 -10.441406 14.019531 -10.929688 14.1875 -11.453125 C 14.351562 -11.984375 14.4375 -12.5 14.4375 -13 C 14.4375 -13.457031 14.347656 -13.953125 14.171875 -14.484375 C 13.992188 -15.023438 13.691406 -15.523438 13.265625 -15.984375 C 12.835938 -16.441406 12.253906 -16.828125 11.515625 -17.140625 C 10.785156 -17.453125 9.859375 -17.609375 8.734375 -17.609375 Z M 5.3125 -16.5 L 7.84375 -16.5 C 8.488281 -16.5 9.066406 -16.40625 9.578125 -16.21875 C 10.085938 -16.039062 10.523438 -15.785156 10.890625 -15.453125 C 11.265625 -15.128906 11.546875 -14.738281 11.734375 -14.28125 C 11.929688 -13.832031 12.03125 -13.335938 12.03125 -12.796875 C 12.03125 -12.347656 11.941406 -11.890625 11.765625 -11.421875 C 11.585938 -10.960938 11.320312 -10.546875 10.96875 -10.171875 C 10.613281 -9.796875 10.179688 -9.488281 9.671875 -9.25 C 9.160156 -9.019531 8.570312 -8.90625 7.90625 -8.90625 L 5.3125 -8.90625 Z M 5.3125 -16.5 "/></g></g></g><g fill="#bb9979" fill-opacity="1"><g transform="translate(179.453058, 298.080642)"><g><path d="M 0.75 -17.609375 L 6.84375 -6.671875 L 6.84375 0 L 9.125 0 L 9.125 -6.890625 L 15.3125 -17.609375 L 13.96875 -17.609375 L 8.578125 -8.328125 L 8.484375 -8.328125 L 3.34375 -17.609375 Z M 0.75 -17.609375 "/></g></g></g><g fill="#bb9979" fill-opacity="1"><g transform="translate(200.685069, 298.080642)"><g/></g></g><g fill="#bb9979" fill-opacity="1"><g transform="translate(214.647384, 298.080642)"><g><path d="M 0.75 -17.609375 L 8.125 0 L 9.640625 0 L 16.78125 -17.609375 L 15.46875 -17.609375 L 9.609375 -3.125 L 9.515625 -3.125 L 3.46875 -17.609375 Z M 0.75 -17.609375 "/></g></g></g><g fill="#bb9979" fill-opacity="1"><g transform="translate(237.338363, 298.080642)"><g><path d="M 4.03125 -17.609375 L 4.03125 0 L 6.3125 0 L 6.3125 -17.609375 Z M 4.03125 -17.609375 "/></g></g></g><g fill="#bb9979" fill-opacity="1"><g transform="translate(252.835103, 298.080642)"><g><path d="M 3.015625 0 L 3.015625 -17.609375 L 5.3125 -17.609375 L 5.3125 -1.390625 L 14.390625 -1.390625 L 14.390625 0 Z M 3.015625 0 "/></g></g></g><g fill="#bb9979" fill-opacity="1"><g transform="translate(273.136391, 298.080642)"><g><path d="M 3.015625 0 L 3.015625 -17.609375 L 5.3125 -17.609375 L 5.3125 -1.390625 L 14.390625 -1.390625 L 14.390625 0 Z M 3.015625 0 "/></g></g></g><g fill="#bb9979" fill-opacity="1"><g transform="translate(293.437678, 298.080642)"><g><path d="M 12.796875 -5.1875 L 15.21875 0 L 17.65625 0 L 9.453125 -17.609375 L 8.203125 -17.609375 L 0.75 0 L 1.90625 0 L 4.125 -5.1875 Z M 12.28125 -6.3125 L 4.609375 -6.3125 L 8.21875 -14.796875 L 8.328125 -14.796875 Z M 12.28125 -6.3125 "/></g></g></g><g clip-path="url(#c092795748)"><g clip-path="url(#aa2b135f4d)"><path fill="#bb9979" d="M 43.367188 286.234375 L 51.796875 286.234375 L 51.796875 294.664062 L 43.367188 294.664062 Z M 43.367188 286.234375 " fill-opacity="1" fill-rule="nonzero"/></g></g><g clip-path="url(#69771c1abe)"><g clip-path="url(#521bce44d6)"><path fill="#bb9979" d="M 326.230469 286.234375 L 334.664062 286.234375 L 334.664062 294.664062 L 326.230469 294.664062 Z M 326.230469 286.234375 " fill-opacity="1" fill-rule="nonzero"/></g></g></svg>